<svg width="460" height="538" viewBox="0 0 460 538" fill="none" xmlns="http://www.w3.org/2000/svg">
<g filter="url(#filter0_dd_259_18)">
<rect x="28.4479" y="9.75346" width="414" height="511" rx="22.2936" fill="white"/>
<rect x="29.1446" y="10.4501" width="412.607" height="509.607" rx="21.597" stroke="#ECECEC" stroke-width="1.39335"/>
<rect x="30.5379" y="72.4308" width="411.039" height="87.7812" fill="white" stroke="#7B00D8" stroke-width="1.39335"/>
<path d="M325.232 59.1939C325.232 53.0377 330.222 48.0471 336.379 48.0471H442.273V71.7341H325.232V59.1939Z" fill="#7B00D8"/>
<circle cx="344.739" cy="60.5872" r="5.57341" fill="white"/>
<circle cx="364.246" cy="60.5872" r="5.57341" fill="white"/>
<circle cx="383.753" cy="60.5872" r="5.57341" fill="white"/>
<circle cx="403.26" cy="60.5872" r="5.57341" fill="white"/>
<circle cx="422.767" cy="60.5872" r="5.57341" fill="white"/>
<rect x="53.5282" y="188.776" width="363.665" height="22.2936" rx="5.57341" fill="#D9D9D9" fill-opacity="0.29"/>
<rect x="53.5282" y="105.113" width="363.665" height="22.2936" rx="5.57341" fill="#D9D9D9" fill-opacity="0.29"/>
<rect x="53.5282" y="222.216" width="363.665" height="22.2936" rx="5.57341" fill="#D9D9D9" fill-opacity="0.29"/>
<rect x="53.5282" y="255.656" width="363.665" height="22.2936" rx="5.57341" fill="#D9D9D9" fill-opacity="0.29"/>
<rect x="53.289" y="289.508" width="364.121" height="134.211" rx="5.57341" fill="#D9D9D9" fill-opacity="0.29"/>
<rect x="163.448" y="303.753" width="30" height="108" rx="5.57341" fill="#D9D9D9" fill-opacity="0.29"/>
<rect x="201.448" y="342.753" width="30" height="69" rx="5.57341" fill="#D9D9D9" fill-opacity="0.29"/>
<rect x="239.448" y="322.753" width="30" height="89" rx="5.57341" fill="#D9D9D9" fill-opacity="0.29"/>
<rect x="277.448" y="303.753" width="30" height="108" rx="5.57341" fill="#D9D9D9" fill-opacity="0.29"/>
<rect x="168.827" y="445.893" width="133.044" height="45.5151" rx="5.57341" fill="#D9D9D9" fill-opacity="0.29"/>
<path d="M194.33 33.4354C194.33 33.4354 201.858 37.5973 202.876 39.6782C203.893 41.7591 202.265 43.0077 201.248 43.6319C200.23 44.2562 198.196 44.0481 196.161 42.5915C194.127 41.1348 192.499 39.6782 191.278 37.5973C190.5 36.2714 189.977 34.707 191.075 33.6435C191.999 32.7474 194.33 33.4354 194.33 33.4354Z" fill="#7B00D8"/>
<path d="M210.2 33.2273C210.2 33.2273 207.433 39.5968 204.402 38.8458C203.676 38.6661 203.285 38.436 202.672 38.0135C201.977 37.5342 201.353 36.7905 201.451 35.9325C201.858 32.395 207.148 30.3141 207.148 30.3141C207.148 30.3141 209.605 29.3027 210.404 30.3141C211.105 31.2012 210.2 33.2273 210.2 33.2273Z" fill="#7B00D8"/>
<path d="M199.01 45.0886C197.884 44.5656 197.75 44.4192 196.568 44.0481C195.494 43.7107 194.764 43.7025 193.923 44.4643C192.905 45.3864 192.655 46.9253 193.516 48.0019C195.347 50.2909 195.144 49.8747 197.789 51.3313C198.709 51.8381 201.265 51.6426 202.265 51.3313C205.926 50.1913 208.776 43.84 208.776 43.84C208.776 43.84 209.549 41.5429 208.776 40.5106C207.853 39.2779 206.945 39.6782 205.928 40.3025C204.36 41.2647 202.028 46.4913 199.01 45.0886Z" fill="#7B00D8"/>
<path d="M222.058 47.6619C218.459 47.6619 216.115 44.9921 216.115 41.1087C216.115 37.2253 218.459 34.5555 222.034 34.5555C225.136 34.5555 227.196 36.6185 227.48 39.4097H225.088C224.97 38.1234 224.26 36.5215 222.058 36.5215C219.477 36.5215 218.53 38.7787 218.53 41.1087C218.53 43.4387 219.477 45.6717 222.058 45.6717C224.283 45.6717 224.97 44.1183 225.088 42.7106H227.48C227.314 45.5503 225.159 47.6619 222.058 47.6619Z" fill="black"/>
<path d="M231.724 47.6376C229.309 47.6376 227.77 46.2056 227.77 44.094C227.77 41.3271 229.806 40.5019 232.813 39.9194C234.707 39.5553 235.867 39.3126 235.867 38.0991C235.867 37.2011 235.347 36.4486 233.571 36.4486C231.463 36.4486 230.824 37.1282 230.706 38.7787H228.338C228.456 36.4001 229.972 34.5312 233.665 34.5312C236.152 34.5312 238.141 35.5992 238.141 38.8029V44.4824C238.141 45.3804 238.259 45.8416 238.709 45.8416C238.78 45.8416 238.851 45.8416 238.993 45.8173V47.2736C238.59 47.3706 238.188 47.4192 237.809 47.4192C236.649 47.4192 236.033 46.958 235.891 45.5503H235.844C235.062 46.8367 233.689 47.6376 231.724 47.6376ZM232.245 45.7202C234.328 45.7202 235.867 44.628 235.867 42.4679V40.6961C235.489 41.0602 234.447 41.3271 233.216 41.5941C231.085 42.031 230.185 42.6378 230.185 43.9241C230.185 45.0892 230.801 45.7202 232.245 45.7202Z" fill="black"/>
<path d="M246.363 34.5555C248.588 34.5555 250.388 35.8661 250.388 38.7059V47.2978H248.067V39.3612C248.067 37.7107 247.357 36.5943 245.605 36.5943C243.616 36.5943 242.337 37.8321 242.337 39.701V47.2978H240.017V34.9196H242.337V36.4729H242.385C243.024 35.5263 244.279 34.5555 246.363 34.5555Z" fill="black"/>
<path d="M255.288 47.6376C252.873 47.6376 251.333 46.2056 251.333 44.094C251.333 41.3271 253.37 40.5019 256.377 39.9194C258.271 39.5553 259.431 39.3126 259.431 38.0991C259.431 37.2011 258.91 36.4486 257.134 36.4486C255.027 36.4486 254.388 37.1282 254.27 38.7787H251.902C252.02 36.4001 253.536 34.5312 257.229 34.5312C259.715 34.5312 261.704 35.5992 261.704 38.8029V44.4824C261.704 45.3804 261.823 45.8416 262.272 45.8416C262.344 45.8416 262.415 45.8416 262.557 45.8173V47.2736C262.154 47.3706 261.752 47.4192 261.373 47.4192C260.213 47.4192 259.597 46.958 259.455 45.5503H259.408C258.626 46.8367 257.253 47.6376 255.288 47.6376ZM255.809 45.7202C257.892 45.7202 259.431 44.628 259.431 42.4679V40.6961C259.052 41.0602 258.011 41.3271 256.779 41.5941C254.648 42.031 253.749 42.6378 253.749 43.9241C253.749 45.0892 254.364 45.7202 255.809 45.7202Z" fill="black"/>
<path d="M269.192 34.6283C269.618 34.6283 269.95 34.6526 270.305 34.7011V36.9826C270.021 36.9341 269.808 36.9098 269.524 36.9098C267.416 36.9098 265.901 38.536 265.901 40.8903V47.2978H263.581V34.9196H265.901V37.2739H265.948C266.588 35.7205 267.558 34.6283 269.192 34.6283Z" fill="black"/>
<path d="M272.474 51.6423C271.953 51.6423 271.598 51.5938 270.982 51.4724V49.5308C271.385 49.5793 271.598 49.6036 271.977 49.6036C272.9 49.6036 273.989 49.1182 274.463 47.1765L269.585 34.9196H272.119L275.647 44.3853H275.694L279.009 34.9196H281.448L276.665 47.5891C275.505 50.6472 274.345 51.6423 272.474 51.6423Z" fill="black"/>
</g>
<g filter="url(#filter1_d_259_18)">
<rect x="120.568" y="31.9275" width="81.1742" height="81.1742" rx="8.8958" fill="white"/>
<rect x="121.124" y="32.4835" width="80.0622" height="80.0622" rx="8.33982" stroke="#ECECEC" stroke-width="1.11198"/>
<path d="M156.151 64.9062V53.7865H158.346V58.4939H163.959V53.7865H166.159V64.9062H163.959V60.1825H158.346V64.9062H156.151Z" fill="#7B00D8"/>
<path d="M135.272 88.2427V76.9207H137.323V81.7138H142.569V76.9207H144.626V88.2427H142.569V83.4331H137.323V88.2427H135.272ZM150.216 88.4085C149.364 88.4085 148.629 88.2316 148.01 87.8778C147.395 87.5203 146.921 87.0154 146.589 86.363C146.258 85.707 146.092 84.9349 146.092 84.0467C146.092 83.1732 146.258 82.4066 146.589 81.7469C146.925 81.0835 147.393 80.5676 147.993 80.199C148.594 79.8268 149.3 79.6406 150.111 79.6406C150.634 79.6406 151.128 79.7254 151.592 79.8949C152.06 80.0608 152.473 80.3188 152.831 80.6689C153.192 81.019 153.476 81.465 153.682 82.0068C153.888 82.5448 153.992 83.1861 153.992 83.9306V84.5442H147.032V83.1953H152.073C152.07 82.812 151.987 82.4711 151.825 82.1726C151.662 81.8704 151.436 81.6327 151.145 81.4595C150.857 81.2862 150.522 81.1996 150.138 81.1996C149.729 81.1996 149.37 81.2991 149.06 81.4981C148.751 81.6935 148.509 81.9515 148.336 82.2721C148.167 82.5891 148.08 82.9373 148.076 83.317V84.4945C148.076 84.9883 148.167 85.4122 148.347 85.766C148.528 86.1161 148.78 86.3852 149.105 86.5731C149.429 86.7574 149.809 86.8495 150.243 86.8495C150.535 86.8495 150.798 86.809 151.034 86.7279C151.27 86.6431 151.474 86.5197 151.648 86.3575C151.821 86.1954 151.952 85.9945 152.04 85.7549L153.909 85.965C153.791 86.4589 153.566 86.8901 153.234 87.2586C152.906 87.6235 152.486 87.9073 151.974 88.11C151.462 88.309 150.876 88.4085 150.216 88.4085ZM157.817 88.414C157.279 88.414 156.794 88.3182 156.363 88.1266C155.935 87.9312 155.596 87.6438 155.346 87.2642C155.099 86.8845 154.975 86.4165 154.975 85.86C154.975 85.3809 155.064 84.9847 155.241 84.6714C155.418 84.3581 155.659 84.1075 155.965 83.9195C156.271 83.7316 156.615 83.5897 156.999 83.4939C157.386 83.3944 157.786 83.3225 158.198 83.2783C158.696 83.2267 159.099 83.1806 159.409 83.1401C159.719 83.0958 159.943 83.0295 160.083 82.941C160.227 82.8489 160.299 82.707 160.299 82.5154V82.4822C160.299 82.0657 160.176 81.7432 159.929 81.5147C159.682 81.2862 159.326 81.172 158.862 81.172C158.372 81.172 157.983 81.2789 157.695 81.4926C157.411 81.7064 157.22 81.9588 157.12 82.25L155.252 81.9846C155.399 81.4687 155.642 81.0375 155.981 80.691C156.321 80.3409 156.735 80.0792 157.225 79.906C157.715 79.7291 158.257 79.6406 158.851 79.6406C159.26 79.6406 159.667 79.6886 160.072 79.7844C160.478 79.8802 160.848 80.0387 161.184 80.2598C161.519 80.4773 161.788 80.7739 161.991 81.1499C162.197 81.5258 162.3 81.9957 162.3 82.5596V88.2427H160.376V87.0762H160.31C160.188 87.3121 160.017 87.5332 159.796 87.7396C159.579 87.9423 159.304 88.1063 158.972 88.2316C158.644 88.3532 158.259 88.414 157.817 88.414ZM158.336 86.9435C158.738 86.9435 159.086 86.8643 159.381 86.7058C159.676 86.5436 159.903 86.3299 160.061 86.0645C160.223 85.7992 160.305 85.5098 160.305 85.1966V84.196C160.242 84.2476 160.135 84.2955 159.984 84.3397C159.836 84.3839 159.671 84.4226 159.486 84.4558C159.302 84.489 159.12 84.5184 158.939 84.5442C158.758 84.57 158.602 84.5921 158.469 84.6106C158.171 84.6511 157.903 84.7175 157.668 84.8096C157.432 84.9017 157.246 85.0307 157.109 85.1966C156.973 85.3587 156.905 85.5688 156.905 85.8268C156.905 86.1954 157.039 86.4736 157.308 86.6616C157.577 86.8495 157.92 86.9435 158.336 86.9435ZM167.152 88.3919C166.485 88.3919 165.888 88.2205 165.361 87.8778C164.834 87.535 164.418 87.0375 164.112 86.3852C163.806 85.7328 163.653 84.9404 163.653 84.008C163.653 83.0645 163.808 82.2684 164.117 81.6198C164.431 80.9674 164.853 80.4754 165.383 80.1437C165.914 79.8083 166.506 79.6406 167.158 79.6406C167.655 79.6406 168.065 79.7254 168.385 79.8949C168.706 80.0608 168.96 80.2617 169.148 80.4975C169.336 80.7297 169.482 80.949 169.585 81.1554H169.668V76.9207H171.674V88.2427H169.706V86.9048H169.585C169.482 87.1112 169.332 87.3305 169.137 87.5627C168.942 87.7912 168.684 87.9865 168.363 88.1487C168.042 88.3108 167.639 88.3919 167.152 88.3919ZM167.711 86.75C168.135 86.75 168.496 86.6358 168.794 86.4073C169.093 86.1751 169.319 85.8526 169.474 85.4398C169.629 85.027 169.706 84.5461 169.706 83.9969C169.706 83.4478 169.629 82.9705 169.474 82.5651C169.323 82.1597 169.098 81.8446 168.8 81.6198C168.505 81.395 168.142 81.2825 167.711 81.2825C167.265 81.2825 166.893 81.3986 166.594 81.6308C166.295 81.863 166.071 82.1837 165.92 82.5928C165.768 83.0018 165.693 83.4699 165.693 83.9969C165.693 84.5277 165.768 85.0012 165.92 85.4177C166.074 85.8305 166.301 86.1567 166.6 86.3962C166.902 86.6321 167.272 86.75 167.711 86.75ZM177.255 88.4085C176.404 88.4085 175.668 88.2316 175.049 87.8778C174.434 87.5203 173.96 87.0154 173.628 86.363C173.297 85.707 173.131 84.9349 173.131 84.0467C173.131 83.1732 173.297 82.4066 173.628 81.7469C173.964 81.0835 174.432 80.5676 175.033 80.199C175.633 79.8268 176.339 79.6406 177.15 79.6406C177.673 79.6406 178.167 79.7254 178.631 79.8949C179.1 80.0608 179.512 80.3188 179.87 80.6689C180.231 81.019 180.515 81.465 180.721 82.0068C180.928 82.5448 181.031 83.1861 181.031 83.9306V84.5442H174.071V83.1953H179.112C179.109 82.812 179.026 82.4711 178.864 82.1726C178.701 81.8704 178.475 81.6327 178.184 81.4595C177.896 81.2862 177.561 81.1996 177.178 81.1996C176.768 81.1996 176.409 81.2991 176.099 81.4981C175.79 81.6935 175.548 81.9515 175.375 82.2721C175.206 82.5891 175.119 82.9373 175.115 83.317V84.4945C175.115 84.9883 175.206 85.4122 175.386 85.766C175.567 86.1161 175.819 86.3852 176.144 86.5731C176.468 86.7574 176.848 86.8495 177.283 86.8495C177.574 86.8495 177.837 86.809 178.073 86.7279C178.309 86.6431 178.514 86.5197 178.687 86.3575C178.86 86.1954 178.991 85.9945 179.079 85.7549L180.948 85.965C180.83 86.4589 180.605 86.8901 180.273 87.2586C179.945 87.6235 179.525 87.9073 179.013 88.11C178.501 88.309 177.915 88.4085 177.255 88.4085ZM182.412 88.2427V79.7512H184.353V81.1665H184.441C184.596 80.6763 184.861 80.2985 185.237 80.0332C185.617 79.7641 186.05 79.6296 186.537 79.6296C186.647 79.6296 186.771 79.6351 186.907 79.6462C187.047 79.6535 187.163 79.6664 187.255 79.6849V81.5258C187.17 81.4963 187.036 81.4705 186.852 81.4484C186.671 81.4226 186.496 81.4097 186.326 81.4097C185.962 81.4097 185.634 81.4889 185.342 81.6474C185.055 81.8022 184.828 82.0178 184.662 82.2942C184.497 82.5706 184.414 82.8894 184.414 83.2506V88.2427H182.412Z" fill="black"/>
</g>
<g filter="url(#filter2_d_259_18)">
<rect x="359.232" y="191.814" width="81.1742" height="81.1742" rx="8.8958" fill="white"/>
<rect x="359.788" y="192.37" width="80.0622" height="80.0622" rx="8.33982" stroke="#ECECEC" stroke-width="1.11198"/>
<path d="M394.938 215.35V213.631H403.972V215.35H400.472V224.953H398.438V215.35H394.938Z" fill="#7B00D8"/>
<path d="M384.438 241.246V239.527H393.472V241.246H389.972V250.849H387.938V241.246H384.438ZM397.341 251.015C396.49 251.015 395.754 250.838 395.135 250.484C394.52 250.126 394.046 249.622 393.714 248.969C393.383 248.313 393.217 247.541 393.217 246.653C393.217 245.779 393.383 245.013 393.714 244.353C394.05 243.69 394.518 243.174 395.119 242.805C395.719 242.433 396.425 242.247 397.236 242.247C397.759 242.247 398.253 242.332 398.718 242.501C399.186 242.667 399.598 242.925 399.956 243.275C400.317 243.625 400.601 244.071 400.807 244.613C401.014 245.151 401.117 245.792 401.117 246.537V247.15H394.157V245.801H399.199C399.195 245.418 399.112 245.077 398.95 244.779C398.788 244.477 398.561 244.239 398.27 244.066C397.982 243.892 397.647 243.806 397.264 243.806C396.855 243.806 396.495 243.905 396.186 244.104C395.876 244.3 395.635 244.558 395.461 244.878C395.292 245.195 395.205 245.543 395.202 245.923V247.101C395.202 247.594 395.292 248.018 395.472 248.372C395.653 248.722 395.906 248.991 396.23 249.179C396.554 249.364 396.934 249.456 397.369 249.456C397.66 249.456 397.923 249.415 398.159 249.334C398.395 249.249 398.6 249.126 398.773 248.964C398.946 248.801 399.077 248.601 399.165 248.361L401.034 248.571C400.916 249.065 400.691 249.496 400.359 249.865C400.031 250.23 399.611 250.513 399.099 250.716C398.587 250.915 398.001 251.015 397.341 251.015ZM403.952 242.357L405.666 245.492L407.408 242.357H409.525L406.965 246.603L409.569 250.849H407.463L405.666 247.792L403.886 250.849H401.763L404.35 246.603L401.83 242.357H403.952ZM415.002 242.357V243.905H410.12V242.357H415.002ZM411.325 240.323H413.327V248.295C413.327 248.564 413.367 248.77 413.448 248.914C413.533 249.054 413.644 249.15 413.78 249.201C413.916 249.253 414.067 249.279 414.233 249.279C414.359 249.279 414.473 249.27 414.576 249.251C414.683 249.233 414.764 249.216 414.819 249.201L415.157 250.766C415.05 250.803 414.897 250.843 414.698 250.887C414.502 250.932 414.263 250.958 413.979 250.965C413.478 250.98 413.026 250.904 412.625 250.738C412.223 250.569 411.904 250.307 411.668 249.953C411.436 249.599 411.322 249.157 411.325 248.626V240.323Z" fill="black"/>
</g>
<g filter="url(#filter3_d_259_18)">
<rect x="220.448" y="438.753" width="81.1742" height="81.1742" rx="8.8958" fill="white"/>
<rect x="221.004" y="439.309" width="80.0622" height="80.0622" rx="8.33982" stroke="#ECECEC" stroke-width="1.11198"/>
<path d="M256.652 471.893V460.571H260.986C261.804 460.571 262.484 460.7 263.026 460.958C263.571 461.212 263.979 461.56 264.248 462.003C264.52 462.445 264.657 462.946 264.657 463.506C264.657 463.967 264.568 464.361 264.391 464.689C264.214 465.014 263.977 465.277 263.678 465.48C263.38 465.683 263.046 465.828 262.678 465.917V466.027C263.079 466.049 263.464 466.173 263.833 466.398C264.205 466.619 264.509 466.932 264.745 467.337C264.981 467.743 265.099 468.233 265.099 468.808C265.099 469.394 264.957 469.921 264.673 470.389C264.39 470.853 263.962 471.22 263.391 471.489C262.819 471.758 262.101 471.893 261.235 471.893H256.652ZM258.703 470.179H260.909C261.653 470.179 262.189 470.037 262.517 469.753C262.849 469.466 263.015 469.097 263.015 468.648C263.015 468.312 262.932 468.01 262.766 467.741C262.6 467.468 262.364 467.254 262.058 467.1C261.753 466.941 261.388 466.862 260.964 466.862H258.703V470.179ZM258.703 465.386H260.732C261.085 465.386 261.404 465.321 261.688 465.192C261.972 465.06 262.195 464.874 262.357 464.634C262.523 464.391 262.606 464.103 262.606 463.772C262.606 463.333 262.451 462.972 262.141 462.688C261.835 462.404 261.38 462.262 260.776 462.262H258.703V465.386Z" fill="#7B00D8"/>
<path d="M237.652 497.788V486.467H241.986C242.804 486.467 243.484 486.596 244.026 486.854C244.571 487.108 244.979 487.456 245.248 487.898C245.52 488.341 245.657 488.842 245.657 489.402C245.657 489.863 245.568 490.257 245.391 490.585C245.214 490.909 244.977 491.173 244.678 491.376C244.38 491.578 244.046 491.724 243.678 491.812V491.923C244.079 491.945 244.464 492.069 244.833 492.293C245.205 492.515 245.509 492.828 245.745 493.233C245.981 493.639 246.099 494.129 246.099 494.704C246.099 495.29 245.957 495.817 245.673 496.285C245.39 496.749 244.962 497.116 244.391 497.385C243.819 497.654 243.101 497.788 242.235 497.788H237.652ZM239.703 496.075H241.909C242.653 496.075 243.189 495.933 243.517 495.649C243.849 495.362 244.015 494.993 244.015 494.543C244.015 494.208 243.932 493.906 243.766 493.637C243.6 493.364 243.364 493.15 243.058 492.995C242.753 492.837 242.388 492.758 241.964 492.758H239.703V496.075ZM239.703 491.282H241.732C242.085 491.282 242.404 491.217 242.688 491.088C242.972 490.956 243.195 490.769 243.357 490.53C243.523 490.287 243.606 489.999 243.606 489.667C243.606 489.229 243.451 488.868 243.141 488.584C242.835 488.3 242.38 488.158 241.776 488.158H239.703V491.282ZM252.896 494.217V489.297H254.897V497.788H252.956V496.279H252.868C252.676 496.755 252.361 497.144 251.923 497.446C251.488 497.748 250.951 497.899 250.314 497.899C249.757 497.899 249.265 497.776 248.838 497.529C248.414 497.278 248.082 496.915 247.843 496.44C247.603 495.96 247.483 495.382 247.483 494.704V489.297H249.485V494.394C249.485 494.932 249.632 495.36 249.927 495.677C250.222 495.994 250.609 496.152 251.088 496.152C251.383 496.152 251.668 496.08 251.945 495.937C252.221 495.793 252.448 495.579 252.625 495.295C252.805 495.008 252.896 494.648 252.896 494.217ZM260.884 489.297V490.845H256.002V489.297H260.884ZM257.207 487.263H259.209V495.234C259.209 495.503 259.249 495.71 259.33 495.854C259.415 495.994 259.525 496.089 259.662 496.141C259.798 496.193 259.949 496.218 260.115 496.218C260.24 496.218 260.355 496.209 260.458 496.191C260.565 496.172 260.646 496.156 260.701 496.141L261.038 497.706C260.932 497.742 260.779 497.783 260.58 497.827C260.384 497.871 260.145 497.897 259.861 497.905C259.36 497.919 258.908 497.844 258.506 497.678C258.105 497.508 257.786 497.247 257.55 496.893C257.318 496.539 257.204 496.097 257.207 495.566V487.263ZM266.486 489.297V490.845H261.605V489.297H266.486ZM262.81 487.263H264.811V495.234C264.811 495.503 264.852 495.71 264.933 495.854C265.017 495.994 265.128 496.089 265.264 496.141C265.401 496.193 265.552 496.218 265.718 496.218C265.843 496.218 265.957 496.209 266.06 496.191C266.167 496.172 266.248 496.156 266.304 496.141L266.641 497.706C266.534 497.742 266.381 497.783 266.182 497.827C265.987 497.871 265.747 497.897 265.463 497.905C264.962 497.919 264.511 497.844 264.109 497.678C263.707 497.508 263.388 497.247 263.153 496.893C262.92 496.539 262.806 496.097 262.81 495.566V487.263ZM271.461 497.954C270.632 497.954 269.913 497.772 269.305 497.407C268.697 497.042 268.225 496.532 267.89 495.876C267.558 495.22 267.392 494.453 267.392 493.576C267.392 492.699 267.558 491.93 267.89 491.271C268.225 490.611 268.697 490.099 269.305 489.734C269.913 489.369 270.632 489.186 271.461 489.186C272.29 489.186 273.009 489.369 273.617 489.734C274.225 490.099 274.695 490.611 275.027 491.271C275.362 491.93 275.53 492.699 275.53 493.576C275.53 494.453 275.362 495.22 275.027 495.876C274.695 496.532 274.225 497.042 273.617 497.407C273.009 497.772 272.29 497.954 271.461 497.954ZM271.472 496.351C271.922 496.351 272.298 496.228 272.6 495.981C272.902 495.73 273.127 495.395 273.274 494.975C273.426 494.554 273.501 494.086 273.501 493.57C273.501 493.051 273.426 492.581 273.274 492.161C273.127 491.737 272.902 491.4 272.6 491.149C272.298 490.898 271.922 490.773 271.472 490.773C271.012 490.773 270.628 490.898 270.322 491.149C270.02 491.4 269.794 491.737 269.642 492.161C269.495 492.581 269.421 493.051 269.421 493.57C269.421 494.086 269.495 494.554 269.642 494.975C269.794 495.395 270.02 495.73 270.322 495.981C270.628 496.228 271.012 496.351 271.472 496.351ZM278.918 492.813V497.788H276.917V489.297H278.83V490.74H278.93C279.125 490.264 279.436 489.887 279.864 489.607C280.295 489.327 280.828 489.186 281.461 489.186C282.047 489.186 282.558 489.312 282.993 489.562C283.431 489.813 283.77 490.176 284.01 490.651C284.253 491.127 284.373 491.704 284.369 492.382V497.788H282.368V492.691C282.368 492.124 282.221 491.68 281.926 491.359C281.635 491.038 281.231 490.878 280.715 490.878C280.365 490.878 280.054 490.956 279.781 491.11C279.512 491.261 279.3 491.481 279.145 491.768C278.994 492.056 278.918 492.404 278.918 492.813Z" fill="black"/>
</g>
<g filter="url(#filter4_d_259_18)">
<rect x="4.44788" y="313.187" width="98.6874" height="81.1742" rx="8.8958" fill="white"/>
<rect x="5.00386" y="313.743" width="97.5754" height="80.0622" rx="8.33982" stroke="#ECECEC" stroke-width="1.11198"/>
<rect x="48.5398" y="335.354" width="10.5035" height="10.5035" stroke="black" stroke-width="1.16705"/>
<path d="M28.5994 362.276H26.5318C26.4728 361.937 26.3641 361.637 26.2056 361.375C26.0471 361.11 25.85 360.885 25.6141 360.7C25.3782 360.516 25.1092 360.378 24.807 360.286C24.5084 360.19 24.186 360.142 23.8395 360.142C23.224 360.142 22.6786 360.297 22.2031 360.606C21.7277 360.912 21.3555 361.362 21.0864 361.955C20.8174 362.545 20.6829 363.266 20.6829 364.117C20.6829 364.983 20.8174 365.713 21.0864 366.306C21.3592 366.896 21.7314 367.342 22.2031 367.644C22.6786 367.942 23.2222 368.092 23.834 368.092C24.1731 368.092 24.49 368.048 24.7848 367.959C25.0834 367.867 25.3506 367.732 25.5865 367.556C25.826 367.379 26.0269 367.161 26.189 366.903C26.3549 366.645 26.4691 366.35 26.5318 366.019L28.5994 366.03C28.522 366.568 28.3543 367.073 28.0963 367.544C27.842 368.016 27.5085 368.433 27.0957 368.794C26.6829 369.151 26.2001 369.431 25.6473 369.634C25.0944 369.833 24.4808 369.933 23.8063 369.933C22.8113 369.933 21.923 369.702 21.1417 369.242C20.3604 368.781 19.7449 368.116 19.2953 367.246C18.8456 366.376 18.6208 365.333 18.6208 364.117C18.6208 362.897 18.8475 361.854 19.3008 360.988C19.7541 360.118 20.3714 359.453 21.1528 358.992C21.9341 358.531 22.8186 358.301 23.8063 358.301C24.4366 358.301 25.0226 358.39 25.5643 358.567C26.1061 358.743 26.5889 359.003 27.0127 359.346C27.4366 359.685 27.7849 360.102 28.0576 360.595C28.334 361.086 28.5146 361.646 28.5994 362.276ZM33.7817 369.944C32.9525 369.944 32.2338 369.761 31.6257 369.396C31.0176 369.032 30.5459 368.521 30.2105 367.865C29.8788 367.209 29.7129 366.442 29.7129 365.565C29.7129 364.688 29.8788 363.92 30.2105 363.26C30.5459 362.6 31.0176 362.088 31.6257 361.723C32.2338 361.358 32.9525 361.176 33.7817 361.176C34.611 361.176 35.3297 361.358 35.9378 361.723C36.5459 362.088 37.0158 362.6 37.3475 363.26C37.6829 363.92 37.8506 364.688 37.8506 365.565C37.8506 366.442 37.6829 367.209 37.3475 367.865C37.0158 368.521 36.5459 369.032 35.9378 369.396C35.3297 369.761 34.611 369.944 33.7817 369.944ZM33.7928 368.341C34.2424 368.341 34.6184 368.217 34.9206 367.97C35.2228 367.72 35.4476 367.384 35.595 366.964C35.7461 366.544 35.8217 366.076 35.8217 365.56C35.8217 365.04 35.7461 364.57 35.595 364.15C35.4476 363.726 35.2228 363.389 34.9206 363.138C34.6184 362.888 34.2424 362.762 33.7928 362.762C33.3321 362.762 32.9488 362.888 32.6429 363.138C32.3407 363.389 32.114 363.726 31.9629 364.15C31.8155 364.57 31.7418 365.04 31.7418 365.56C31.7418 366.076 31.8155 366.544 31.9629 366.964C32.114 367.384 32.3407 367.72 32.6429 367.97C32.9488 368.217 33.3321 368.341 33.7928 368.341ZM41.239 364.802V369.778H39.2378V361.286H41.1506V362.729H41.2501C41.4454 362.254 41.7568 361.876 42.1844 361.596C42.6156 361.316 43.1481 361.176 43.782 361.176C44.368 361.176 44.8785 361.301 45.3134 361.552C45.7519 361.802 46.091 362.165 46.3306 362.641C46.5738 363.116 46.6936 363.693 46.6899 364.371V369.778H44.6887V364.681C44.6887 364.113 44.5413 363.669 44.2464 363.348C43.9553 363.028 43.5517 362.868 43.0357 362.868C42.6856 362.868 42.3742 362.945 42.1014 363.1C41.8324 363.251 41.6205 363.47 41.4657 363.758C41.3146 364.045 41.239 364.393 41.239 364.802ZM52.6532 361.286V362.834H47.7717V361.286H52.6532ZM48.9769 359.252H50.9781V367.224C50.9781 367.493 51.0186 367.699 51.0997 367.843C51.1845 367.983 51.2951 368.079 51.4314 368.13C51.5678 368.182 51.7189 368.208 51.8847 368.208C52.01 368.208 52.1243 368.199 52.2275 368.18C52.3344 368.162 52.4155 368.145 52.4707 368.13L52.808 369.695C52.7011 369.732 52.5481 369.772 52.3491 369.817C52.1538 369.861 51.9142 369.887 51.6304 369.894C51.1292 369.909 50.6777 369.833 50.276 369.667C49.8743 369.498 49.5555 369.236 49.3196 368.882C49.0874 368.528 48.9732 368.086 48.9769 367.556V359.252ZM56.459 369.949C55.9209 369.949 55.4363 369.853 55.0051 369.662C54.5775 369.466 54.2385 369.179 53.9879 368.799C53.7409 368.42 53.6175 367.952 53.6175 367.395C53.6175 366.916 53.7059 366.52 53.8828 366.207C54.0597 365.893 54.3011 365.643 54.607 365.455C54.9129 365.267 55.2575 365.125 55.6408 365.029C56.0278 364.93 56.4277 364.858 56.8405 364.813C57.338 364.762 57.7416 364.716 58.0512 364.675C58.3607 364.631 58.5856 364.565 58.7256 364.476C58.8693 364.384 58.9412 364.242 58.9412 364.051V364.017C58.9412 363.601 58.8177 363.278 58.5708 363.05C58.3239 362.821 57.9682 362.707 57.5039 362.707C57.0137 362.707 56.6249 362.814 56.3374 363.028C56.0536 363.242 55.8619 363.494 55.7624 363.785L53.8939 363.52C54.0413 363.004 54.2845 362.573 54.6236 362.226C54.9627 361.876 55.3773 361.614 55.8675 361.441C56.3577 361.264 56.8994 361.176 57.4928 361.176C57.9019 361.176 58.3091 361.224 58.7145 361.32C59.12 361.415 59.4903 361.574 59.8257 361.795C60.1611 362.012 60.4302 362.309 60.6329 362.685C60.8393 363.061 60.9424 363.531 60.9424 364.095V369.778H59.0186V368.611H58.9523C58.8306 368.847 58.6593 369.068 58.4381 369.275C58.2207 369.478 57.9461 369.642 57.6144 369.767C57.2864 369.888 56.9013 369.949 56.459 369.949ZM56.9787 368.479C57.3804 368.479 57.7287 368.399 58.0235 368.241C58.3184 368.079 58.545 367.865 58.7035 367.6C58.8657 367.334 58.9467 367.045 58.9467 366.732V365.731C58.8841 365.783 58.7772 365.831 58.6261 365.875C58.4787 365.919 58.3128 365.958 58.1285 365.991C57.9443 366.024 57.7618 366.054 57.5812 366.079C57.4007 366.105 57.244 366.127 57.1113 366.146C56.8128 366.186 56.5456 366.253 56.3097 366.345C56.0739 366.437 55.8877 366.566 55.7514 366.732C55.615 366.894 55.5468 367.104 55.5468 367.362C55.5468 367.731 55.6814 368.009 55.9504 368.197C56.2194 368.385 56.5622 368.479 56.9787 368.479ZM62.6434 369.778V361.286H64.6446V369.778H62.6434ZM63.6495 360.081C63.3326 360.081 63.0599 359.976 62.8314 359.766C62.6028 359.552 62.4886 359.296 62.4886 358.998C62.4886 358.696 62.6028 358.439 62.8314 358.229C63.0599 358.016 63.3326 357.909 63.6495 357.909C63.9702 357.909 64.2429 358.016 64.4677 358.229C64.6962 358.439 64.8105 358.696 64.8105 358.998C64.8105 359.296 64.6962 359.552 64.4677 359.766C64.2429 359.976 63.9702 360.081 63.6495 360.081ZM68.3924 364.802V369.778H66.3912V361.286H68.304V362.729H68.4035C68.5988 362.254 68.9102 361.876 69.3378 361.596C69.769 361.316 70.3015 361.176 70.9354 361.176C71.5214 361.176 72.0319 361.301 72.4668 361.552C72.9053 361.802 73.2444 362.165 73.484 362.641C73.7272 363.116 73.847 363.693 73.8433 364.371V369.778H71.8421V364.681C71.8421 364.113 71.6947 363.669 71.3998 363.348C71.1087 363.028 70.7051 362.868 70.1891 362.868C69.839 362.868 69.5276 362.945 69.2548 363.1C68.9858 363.251 68.7739 363.47 68.6191 363.758C68.468 364.045 68.3924 364.393 68.3924 364.802ZM79.3256 369.944C78.4742 369.944 77.739 369.767 77.1198 369.413C76.5043 369.056 76.0307 368.551 75.699 367.898C75.3674 367.242 75.2015 366.47 75.2015 365.582C75.2015 364.708 75.3674 363.942 75.699 363.282C76.0344 362.619 76.5025 362.103 77.1032 361.734C77.704 361.362 78.4098 361.176 79.2206 361.176C79.7439 361.176 80.2378 361.261 80.7021 361.43C81.1702 361.596 81.583 361.854 81.9405 362.204C82.3017 362.554 82.5855 363 82.7918 363.542C82.9982 364.08 83.1014 364.721 83.1014 365.466V366.079H76.1413V364.731H81.1831C81.1794 364.347 81.0965 364.006 80.9343 363.708C80.7722 363.406 80.5455 363.168 80.2544 362.995C79.9669 362.821 79.6315 362.735 79.2482 362.735C78.8391 362.735 78.4798 362.834 78.1702 363.033C77.8606 363.229 77.6192 363.487 77.446 363.807C77.2765 364.124 77.1898 364.473 77.1862 364.852V366.03C77.1862 366.524 77.2765 366.947 77.457 367.301C77.6376 367.651 77.8901 367.92 78.2144 368.108C78.5387 368.293 78.9184 368.385 79.3532 368.385C79.6444 368.385 79.9079 368.344 80.1438 368.263C80.3797 368.178 80.5842 368.055 80.7574 367.893C80.9307 367.731 81.0615 367.53 81.1499 367.29L83.0185 367.5C82.9006 367.994 82.6757 368.425 82.3441 368.794C82.016 369.159 81.5959 369.442 81.0836 369.645C80.5713 369.844 79.9853 369.944 79.3256 369.944ZM84.4831 369.778V361.286H86.4235V362.702H86.512C86.6668 362.211 86.9321 361.834 87.3081 361.568C87.6877 361.299 88.1207 361.165 88.6072 361.165C88.7178 361.165 88.8412 361.17 88.9776 361.181C89.1177 361.189 89.2338 361.202 89.3259 361.22V363.061C89.2411 363.032 89.1066 363.006 88.9223 362.984C88.7417 362.958 88.5667 362.945 88.3971 362.945C88.0323 362.945 87.7043 363.024 87.4131 363.183C87.1256 363.337 86.899 363.553 86.7331 363.829C86.5673 364.106 86.4844 364.425 86.4844 364.786V369.778H84.4831Z" fill="black"/>
</g>
<g filter="url(#filter5_d_259_18)">
<rect x="309.448" y="316.753" width="76.6874" height="81.1742" rx="8.8958" fill="white"/>
<rect x="310.004" y="317.309" width="75.5754" height="80.0622" rx="8.33982" stroke="#ECECEC" stroke-width="1.11198"/>
<path d="M353.792 345.485C353.792 345.336 353.732 345.193 353.627 345.087C353.521 344.982 353.378 344.922 353.229 344.922H350.979C350.83 344.922 350.687 344.982 350.581 345.087C350.476 345.193 350.417 345.336 350.417 345.485V350.547H349.292V338.36C349.292 337.814 349.29 337.46 349.256 337.2C349.223 336.957 349.169 336.88 349.127 336.837C349.084 336.795 349.007 336.741 348.764 336.708C348.503 336.674 348.15 336.672 347.604 336.672C347.058 336.672 346.704 336.674 346.445 336.708C346.201 336.741 346.124 336.795 346.082 336.837C346.039 336.88 345.986 336.957 345.953 337.2C345.918 337.461 345.917 337.814 345.917 338.36V350.547H344.792V341.735C344.792 341.586 344.732 341.443 344.627 341.337C344.521 341.232 344.378 341.172 344.229 341.172H341.979C341.83 341.172 341.687 341.232 341.581 341.337C341.476 341.443 341.417 341.586 341.417 341.735V350.547H340.104C339.955 350.547 339.812 350.607 339.706 350.712C339.601 350.818 339.542 350.961 339.542 351.11C339.542 351.259 339.601 351.402 339.706 351.508C339.812 351.613 339.955 351.672 340.104 351.672H355.104C355.253 351.672 355.396 351.613 355.502 351.508C355.607 351.402 355.667 351.259 355.667 351.11C355.667 350.961 355.607 350.818 355.502 350.712C355.396 350.607 355.253 350.547 355.104 350.547H353.792V345.485Z" fill="#7B00D8"/>
<path d="M333.599 369.007H331.532C331.473 368.668 331.364 368.367 331.206 368.106C331.047 367.84 330.85 367.616 330.614 367.431C330.378 367.247 330.109 367.109 329.807 367.017C329.508 366.921 329.186 366.873 328.84 366.873C328.224 366.873 327.679 367.028 327.203 367.337C326.728 367.643 326.356 368.093 326.086 368.686C325.817 369.276 325.683 369.996 325.683 370.848C325.683 371.714 325.817 372.444 326.086 373.037C326.359 373.627 326.731 374.073 327.203 374.375C327.679 374.673 328.222 374.823 328.834 374.823C329.173 374.823 329.49 374.778 329.785 374.69C330.083 374.598 330.351 374.463 330.587 374.286C330.826 374.109 331.027 373.892 331.189 373.634C331.355 373.376 331.469 373.081 331.532 372.75L333.599 372.761C333.522 373.299 333.354 373.804 333.096 374.275C332.842 374.747 332.509 375.164 332.096 375.525C331.683 375.882 331.2 376.162 330.647 376.365C330.094 376.564 329.481 376.664 328.806 376.664C327.811 376.664 326.923 376.433 326.142 375.973C325.36 375.512 324.745 374.847 324.295 373.977C323.846 373.107 323.621 372.064 323.621 370.848C323.621 369.628 323.848 368.585 324.301 367.719C324.754 366.849 325.371 366.184 326.153 365.723C326.934 365.262 327.819 365.032 328.806 365.032C329.437 365.032 330.023 365.121 330.564 365.297C331.106 365.474 331.589 365.734 332.013 366.077C332.437 366.416 332.785 366.832 333.058 367.326C333.334 367.816 333.515 368.377 333.599 369.007ZM337.079 371.533V376.509H335.078V365.187H337.035V369.46H337.134C337.333 368.981 337.641 368.603 338.058 368.327C338.478 368.047 339.012 367.907 339.661 367.907C340.25 367.907 340.765 368.03 341.203 368.277C341.642 368.524 341.981 368.885 342.22 369.361C342.464 369.836 342.585 370.417 342.585 371.102V376.509H340.584V371.412C340.584 370.84 340.437 370.396 340.142 370.079C339.851 369.759 339.442 369.598 338.914 369.598C338.561 369.598 338.244 369.676 337.964 369.831C337.687 369.982 337.47 370.201 337.311 370.488C337.156 370.776 337.079 371.124 337.079 371.533ZM346.757 376.68C346.219 376.68 345.735 376.584 345.303 376.393C344.876 376.197 344.537 375.91 344.286 375.53C344.039 375.151 343.916 374.683 343.916 374.126C343.916 373.647 344.004 373.251 344.181 372.937C344.358 372.624 344.599 372.374 344.905 372.186C345.211 371.998 345.556 371.856 345.939 371.76C346.326 371.66 346.726 371.589 347.139 371.544C347.636 371.493 348.04 371.447 348.35 371.406C348.659 371.362 348.884 371.296 349.024 371.207C349.168 371.115 349.24 370.973 349.24 370.781V370.748C349.24 370.332 349.116 370.009 348.869 369.781C348.622 369.552 348.267 369.438 347.802 369.438C347.312 369.438 346.923 369.545 346.636 369.759C346.352 369.972 346.16 370.225 346.061 370.516L344.192 370.251C344.34 369.735 344.583 369.304 344.922 368.957C345.261 368.607 345.676 368.345 346.166 368.172C346.656 367.995 347.198 367.907 347.791 367.907C348.2 367.907 348.607 367.955 349.013 368.05C349.418 368.146 349.789 368.305 350.124 368.526C350.459 368.743 350.729 369.04 350.931 369.416C351.138 369.792 351.241 370.262 351.241 370.826V376.509H349.317V375.342H349.251C349.129 375.578 348.958 375.799 348.736 376.006C348.519 376.208 348.244 376.372 347.913 376.498C347.585 376.619 347.2 376.68 346.757 376.68ZM347.277 375.21C347.679 375.21 348.027 375.13 348.322 374.972C348.617 374.81 348.843 374.596 349.002 374.331C349.164 374.065 349.245 373.776 349.245 373.463V372.462C349.182 372.514 349.076 372.562 348.924 372.606C348.777 372.65 348.611 372.689 348.427 372.722C348.243 372.755 348.06 372.785 347.88 372.81C347.699 372.836 347.542 372.858 347.41 372.877C347.111 372.917 346.844 372.984 346.608 373.076C346.372 373.168 346.186 373.297 346.05 373.463C345.913 373.625 345.845 373.835 345.845 374.093C345.845 374.461 345.98 374.74 346.249 374.928C346.518 375.116 346.861 375.21 347.277 375.21ZM352.942 376.509V368.017H354.882V369.433H354.971C355.125 368.942 355.391 368.565 355.767 368.299C356.146 368.03 356.579 367.896 357.066 367.896C357.176 367.896 357.3 367.901 357.436 367.912C357.576 367.92 357.692 367.933 357.785 367.951V369.792C357.7 369.762 357.565 369.737 357.381 369.715C357.2 369.689 357.025 369.676 356.856 369.676C356.491 369.676 356.163 369.755 355.872 369.914C355.584 370.068 355.358 370.284 355.192 370.56C355.026 370.837 354.943 371.156 354.943 371.517V376.509H352.942ZM363.499 368.017V369.565H358.618V368.017H363.499ZM359.823 365.983H361.824V373.955C361.824 374.224 361.864 374.43 361.946 374.574C362.03 374.714 362.141 374.81 362.277 374.861C362.414 374.913 362.565 374.939 362.731 374.939C362.856 374.939 362.97 374.93 363.073 374.911C363.18 374.893 363.261 374.876 363.317 374.861L363.654 376.426C363.547 376.463 363.394 376.503 363.195 376.547C363 376.592 362.76 376.617 362.476 376.625C361.975 376.64 361.524 376.564 361.122 376.398C360.72 376.229 360.401 375.967 360.165 375.613C359.933 375.259 359.819 374.817 359.823 374.286V365.983ZM371.451 370.262L369.627 370.461C369.575 370.277 369.485 370.103 369.356 369.941C369.231 369.779 369.061 369.648 368.847 369.549C368.633 369.449 368.372 369.399 368.062 369.399C367.646 369.399 367.296 369.49 367.012 369.67C366.732 369.851 366.594 370.085 366.597 370.372C366.594 370.619 366.684 370.82 366.868 370.975C367.056 371.13 367.366 371.257 367.797 371.356L369.245 371.666C370.049 371.839 370.646 372.114 371.036 372.49C371.431 372.866 371.63 373.358 371.633 373.966C371.63 374.5 371.473 374.972 371.164 375.381C370.858 375.786 370.432 376.103 369.887 376.332C369.341 376.56 368.715 376.675 368.007 376.675C366.968 376.675 366.131 376.457 365.497 376.022C364.863 375.584 364.485 374.974 364.364 374.192L366.315 374.004C366.404 374.388 366.592 374.677 366.879 374.872C367.167 375.068 367.541 375.165 368.001 375.165C368.477 375.165 368.858 375.068 369.146 374.872C369.437 374.677 369.582 374.436 369.582 374.148C369.582 373.905 369.489 373.704 369.301 373.546C369.116 373.387 368.829 373.266 368.438 373.181L366.99 372.877C366.175 372.707 365.573 372.422 365.182 372.02C364.791 371.614 364.598 371.102 364.602 370.483C364.598 369.96 364.74 369.506 365.027 369.123C365.318 368.736 365.722 368.437 366.238 368.227C366.758 368.014 367.356 367.907 368.035 367.907C369.03 367.907 369.813 368.119 370.384 368.543C370.959 368.966 371.315 369.539 371.451 370.262Z" fill="black"/>
</g>
<g clip-path="url(#clip0_259_18)">
<path d="M177.96 107.949V105.858C177.96 105.304 177.74 104.772 177.348 104.38C176.956 103.988 176.424 103.768 175.87 103.768C175.315 103.768 174.784 103.988 174.392 104.38C174 104.772 173.779 105.304 173.779 105.858V104.813C173.741 104.286 173.505 103.794 173.118 103.434C172.731 103.075 172.223 102.875 171.694 102.875C171.166 102.875 170.658 103.075 170.271 103.434C169.884 103.794 169.648 104.286 169.609 104.813V105.858C169.571 105.332 169.335 104.839 168.948 104.479C168.561 104.12 168.053 103.92 167.525 103.92C166.996 103.92 166.488 104.12 166.101 104.479C165.714 104.839 165.478 105.332 165.44 105.858V113.153C164.891 113.153 164.348 113.261 163.841 113.471C163.335 113.682 162.874 113.99 162.487 114.378C162.1 114.766 161.793 115.227 161.584 115.735C161.375 116.242 161.268 116.785 161.27 117.334C161.271 119.375 161.908 121.365 163.093 123.027L164.617 125.151C165.195 125.962 165.96 126.624 166.845 127.08C167.731 127.536 168.713 127.775 169.71 127.775H175.036C176.445 127.777 177.822 127.361 178.994 126.58C180.166 125.798 181.08 124.686 181.62 123.385C181.979 122.521 182.163 121.594 182.164 120.659V107.949C182.185 107.662 182.146 107.374 182.051 107.103C181.956 106.832 181.806 106.584 181.61 106.373C181.414 106.163 181.177 105.995 180.914 105.88C180.65 105.765 180.366 105.706 180.079 105.706C179.791 105.706 179.507 105.765 179.244 105.88C178.98 105.995 178.743 106.163 178.548 106.373C178.352 106.584 178.202 106.832 178.106 107.103C178.011 107.374 177.973 107.662 177.994 107.949H177.96ZM165.44 113.153V116.289ZM169.609 111.073V105.858ZM173.779 111.073V105.858ZM177.96 111.073V107.949Z" fill="white"/>
<path d="M177.96 107.949V105.858C177.96 105.304 177.74 104.772 177.348 104.38C176.956 103.988 176.424 103.768 175.87 103.768C175.315 103.768 174.784 103.988 174.392 104.38C174 104.772 173.779 105.304 173.779 105.858M177.96 107.949H177.994C177.973 107.662 178.011 107.374 178.106 107.103C178.202 106.832 178.352 106.584 178.548 106.373C178.743 106.163 178.98 105.995 179.244 105.88C179.507 105.765 179.791 105.706 180.079 105.706C180.366 105.706 180.65 105.765 180.914 105.88C181.177 105.995 181.414 106.163 181.61 106.373C181.806 106.584 181.956 106.832 182.051 107.103C182.146 107.374 182.185 107.662 182.164 107.949V120.659C182.163 121.594 181.979 122.521 181.62 123.385C181.08 124.686 180.166 125.798 178.994 126.58C177.822 127.361 176.445 127.777 175.036 127.775H169.71C168.713 127.775 167.731 127.536 166.845 127.08C165.96 126.624 165.195 125.962 164.617 125.151L163.093 123.027C161.908 121.365 161.271 119.375 161.27 117.334C161.268 116.785 161.375 116.242 161.584 115.735C161.793 115.227 162.1 114.766 162.487 114.378C162.874 113.99 163.335 113.682 163.841 113.471C164.348 113.261 164.891 113.153 165.44 113.153M177.96 107.949V111.073M173.779 105.858V104.813C173.741 104.286 173.505 103.794 173.118 103.434C172.731 103.075 172.223 102.875 171.694 102.875C171.166 102.875 170.658 103.075 170.271 103.434C169.884 103.794 169.648 104.286 169.609 104.813V105.858M173.779 105.858V111.073M169.609 105.858C169.571 105.332 169.335 104.839 168.948 104.479C168.561 104.12 168.053 103.92 167.525 103.92C166.996 103.92 166.488 104.12 166.101 104.479C165.714 104.839 165.478 105.332 165.44 105.858V113.153M169.609 105.858V111.073M165.44 113.153V116.289" stroke="black" stroke-width="1.66796" stroke-linecap="round" stroke-linejoin="round"/>
</g>
<defs>
<filter id="filter0_dd_259_18" x="20.0878" y="1.66893e-06" width="439.08" height="537.474" filterUnits="userSpaceOnUse" color-interpolation-filters="sRGB">
<feFlood flood-opacity="0" result="BackgroundImageFix"/>
<feColorMatrix in="SourceAlpha" type="matrix" values="0 0 0 0 0 0 0 0 0 0 0 0 0 0 0 0 0 0 127 0" result="hardAlpha"/>
<feMorphology radius="1.39335" operator="erode" in="SourceAlpha" result="effect1_dropShadow_259_18"/>
<feOffset dx="4.18006" dy="2.7867"/>
<feGaussianBlur stdDeviation="6.96676"/>
<feComposite in2="hardAlpha" operator="out"/>
<feColorMatrix type="matrix" values="0 0 0 0 0.482353 0 0 0 0 0 0 0 0 0 0.847059 0 0 0 0.46 0"/>
<feBlend mode="normal" in2="BackgroundImageFix" result="effect1_dropShadow_259_18"/>
<feColorMatrix in="SourceAlpha" type="matrix" values="0 0 0 0 0 0 0 0 0 0 0 0 0 0 0 0 0 0 127 0" result="hardAlpha"/>
<feOffset dx="6.96676" dy="11.1468"/>
<feGaussianBlur stdDeviation="2.7867"/>
<feComposite in2="hardAlpha" operator="out"/>
<feColorMatrix type="matrix" values="0 0 0 0 1 0 0 0 0 0.584314 0 0 0 0 0 0 0 0 0.25 0"/>
<feBlend mode="normal" in2="effect1_dropShadow_259_18" result="effect2_dropShadow_259_18"/>
<feBlend mode="normal" in="SourceGraphic" in2="effect2_dropShadow_259_18" result="shape"/>
</filter>
<filter id="filter1_d_259_18" x="116.12" y="27.4796" width="90.07" height="90.07" filterUnits="userSpaceOnUse" color-interpolation-filters="sRGB">
<feFlood flood-opacity="0" result="BackgroundImageFix"/>
<feColorMatrix in="SourceAlpha" type="matrix" values="0 0 0 0 0 0 0 0 0 0 0 0 0 0 0 0 0 0 127 0" result="hardAlpha"/>
<feOffset/>
<feGaussianBlur stdDeviation="2.22395"/>
<feComposite in2="hardAlpha" operator="out"/>
<feColorMatrix type="matrix" values="0 0 0 0 0.725173 0 0 0 0 0.725173 0 0 0 0 0.725173 0 0 0 0.25 0"/>
<feBlend mode="normal" in2="BackgroundImageFix" result="effect1_dropShadow_259_18"/>
<feBlend mode="normal" in="SourceGraphic" in2="effect1_dropShadow_259_18" result="shape"/>
</filter>
<filter id="filter2_d_259_18" x="354.784" y="187.366" width="90.07" height="90.07" filterUnits="userSpaceOnUse" color-interpolation-filters="sRGB">
<feFlood flood-opacity="0" result="BackgroundImageFix"/>
<feColorMatrix in="SourceAlpha" type="matrix" values="0 0 0 0 0 0 0 0 0 0 0 0 0 0 0 0 0 0 127 0" result="hardAlpha"/>
<feOffset/>
<feGaussianBlur stdDeviation="2.22395"/>
<feComposite in2="hardAlpha" operator="out"/>
<feColorMatrix type="matrix" values="0 0 0 0 0.725173 0 0 0 0 0.725173 0 0 0 0 0.725173 0 0 0 0.25 0"/>
<feBlend mode="normal" in2="BackgroundImageFix" result="effect1_dropShadow_259_18"/>
<feBlend mode="normal" in="SourceGraphic" in2="effect1_dropShadow_259_18" result="shape"/>
</filter>
<filter id="filter3_d_259_18" x="216" y="434.306" width="90.07" height="90.07" filterUnits="userSpaceOnUse" color-interpolation-filters="sRGB">
<feFlood flood-opacity="0" result="BackgroundImageFix"/>
<feColorMatrix in="SourceAlpha" type="matrix" values="0 0 0 0 0 0 0 0 0 0 0 0 0 0 0 0 0 0 127 0" result="hardAlpha"/>
<feOffset/>
<feGaussianBlur stdDeviation="2.22395"/>
<feComposite in2="hardAlpha" operator="out"/>
<feColorMatrix type="matrix" values="0 0 0 0 0.725173 0 0 0 0 0.725173 0 0 0 0 0.725173 0 0 0 0.25 0"/>
<feBlend mode="normal" in2="BackgroundImageFix" result="effect1_dropShadow_259_18"/>
<feBlend mode="normal" in="SourceGraphic" in2="effect1_dropShadow_259_18" result="shape"/>
</filter>
<filter id="filter4_d_259_18" x="-2.6226e-05" y="308.739" width="107.583" height="90.07" filterUnits="userSpaceOnUse" color-interpolation-filters="sRGB">
<feFlood flood-opacity="0" result="BackgroundImageFix"/>
<feColorMatrix in="SourceAlpha" type="matrix" values="0 0 0 0 0 0 0 0 0 0 0 0 0 0 0 0 0 0 127 0" result="hardAlpha"/>
<feOffset/>
<feGaussianBlur stdDeviation="2.22395"/>
<feComposite in2="hardAlpha" operator="out"/>
<feColorMatrix type="matrix" values="0 0 0 0 0.725173 0 0 0 0 0.725173 0 0 0 0 0.725173 0 0 0 0.25 0"/>
<feBlend mode="normal" in2="BackgroundImageFix" result="effect1_dropShadow_259_18"/>
<feBlend mode="normal" in="SourceGraphic" in2="effect1_dropShadow_259_18" result="shape"/>
</filter>
<filter id="filter5_d_259_18" x="305" y="312.306" width="85.5832" height="90.07" filterUnits="userSpaceOnUse" color-interpolation-filters="sRGB">
<feFlood flood-opacity="0" result="BackgroundImageFix"/>
<feColorMatrix in="SourceAlpha" type="matrix" values="0 0 0 0 0 0 0 0 0 0 0 0 0 0 0 0 0 0 127 0" result="hardAlpha"/>
<feOffset/>
<feGaussianBlur stdDeviation="2.22395"/>
<feComposite in2="hardAlpha" operator="out"/>
<feColorMatrix type="matrix" values="0 0 0 0 0.725173 0 0 0 0 0.725173 0 0 0 0 0.725173 0 0 0 0.25 0"/>
<feBlend mode="normal" in2="BackgroundImageFix" result="effect1_dropShadow_259_18"/>
<feBlend mode="normal" in="SourceGraphic" in2="effect1_dropShadow_259_18" result="shape"/>
</filter>
<clipPath id="clip0_259_18">
<rect width="26.6874" height="26.6874" fill="white" transform="translate(158.375 101.982)"/>
</clipPath>
</defs>
</svg>
