<svg width="339" height="397" viewBox="0 0 339 397" fill="none" xmlns="http://www.w3.org/2000/svg">
<g filter="url(#filter0_dd_259_81)">
<g clip-path="url(#clip0_259_81)">
<rect x="20.9786" y="7.19263" width="305.301" height="376.833" rx="16.4403" fill="white"/>
<rect x="22.52" y="53.4135" width="303.118" height="64.7336" fill="white" stroke="#7B00D8" stroke-width="1.02752"/>
<path d="M239.84 43.6521C239.84 39.1123 243.52 35.432 248.06 35.432H326.151V52.8998H239.84V43.6521Z" fill="#7B00D8"/>
<circle cx="254.225" cy="44.6796" r="4.11007" fill="white"/>
<circle cx="268.61" cy="44.6796" r="4.11007" fill="white"/>
<circle cx="282.996" cy="44.6796" r="4.11007" fill="white"/>
<circle cx="297.381" cy="44.6796" r="4.11007" fill="white"/>
<circle cx="311.766" cy="44.6796" r="4.11007" fill="white"/>
<rect x="39.4739" y="139.211" width="268.182" height="16.4403" rx="4.11007" fill="#D9D9D9" fill-opacity="0.29"/>
<rect x="39.4739" y="77.5149" width="268.182" height="16.4403" rx="4.11007" fill="#D9D9D9" fill-opacity="0.29"/>
<rect x="39.4739" y="163.872" width="268.182" height="16.4403" rx="4.11007" fill="#D9D9D9" fill-opacity="0.29"/>
<rect x="39.4739" y="188.532" width="268.182" height="16.4403" rx="4.11007" fill="#D9D9D9" fill-opacity="0.29"/>
<rect x="39.2975" y="213.495" width="268.518" height="98.9731" rx="4.11007" fill="#D9D9D9" fill-opacity="0.29"/>
<rect x="124.5" y="328.82" width="98.1124" height="33.5648" rx="4.11007" fill="#D9D9D9" fill-opacity="0.29"/>
<path d="M143.307 24.6567C143.307 24.6567 148.859 27.7259 149.609 29.2604C150.359 30.795 149.159 31.7157 148.409 32.1761C147.659 32.6364 146.158 32.483 144.658 31.4088C143.157 30.3346 141.957 29.2604 141.057 27.7259C140.483 26.7481 140.097 25.5945 140.907 24.8102C141.588 24.1494 143.307 24.6567 143.307 24.6567Z" fill="#7B00D8"/>
<path d="M155.011 24.5033C155.011 24.5033 152.97 29.2004 150.735 28.6466C150.2 28.5141 149.911 28.3444 149.459 28.0328C148.947 27.6794 148.486 27.1309 148.559 26.4982C148.859 23.8895 152.76 22.3549 152.76 22.3549C152.76 22.3549 154.572 21.6091 155.161 22.3549C155.678 23.0091 155.011 24.5033 155.011 24.5033Z" fill="#7B00D8"/>
<path d="M146.758 33.2503C145.928 32.8646 145.829 32.7567 144.958 32.483C144.166 32.2342 143.628 32.2281 143.007 32.7899C142.256 33.4699 142.072 34.6047 142.707 35.3986C144.058 37.0867 143.908 36.7797 145.858 37.8539C146.537 38.2276 148.422 38.0835 149.159 37.8539C151.859 37.0132 153.96 32.3295 153.96 32.3295C153.96 32.3295 154.53 30.6355 153.96 29.8742C153.28 28.9652 152.61 29.2604 151.86 29.7208C150.704 30.4304 148.984 34.2847 146.758 33.2503Z" fill="#7B00D8"/>
<path d="M163.755 35.148C161.101 35.148 159.372 33.1791 159.372 30.3153C159.372 27.4516 161.101 25.4827 163.737 25.4827C166.025 25.4827 167.544 27.0041 167.753 29.0624H165.99C165.903 28.1138 165.379 26.9325 163.755 26.9325C161.852 26.9325 161.153 28.5971 161.153 30.3153C161.153 32.0336 161.852 33.6803 163.755 33.6803C165.396 33.6803 165.903 32.5348 165.99 31.4967H167.753C167.631 33.5908 166.042 35.148 163.755 35.148Z" fill="black"/>
<path d="M170.883 35.1301C169.102 35.1301 167.967 34.074 167.967 32.5169C167.967 30.4764 169.469 29.8679 171.686 29.4383C173.083 29.1698 173.939 28.9909 173.939 28.0959C173.939 27.4337 173.555 26.8788 172.245 26.8788C170.691 26.8788 170.22 27.38 170.132 28.5971H168.386C168.474 26.843 169.591 25.4648 172.315 25.4648C174.148 25.4648 175.615 26.2524 175.615 28.615V32.8032C175.615 33.4655 175.702 33.8056 176.034 33.8056C176.087 33.8056 176.139 33.8056 176.244 33.7877V34.8616C175.947 34.9332 175.65 34.969 175.371 34.969C174.515 34.969 174.061 34.6289 173.956 33.5908H173.921C173.345 34.5394 172.332 35.1301 170.883 35.1301ZM171.267 33.7161C172.804 33.7161 173.939 32.9106 173.939 31.3177V30.0111C173.659 30.2795 172.891 30.4764 171.983 30.6733C170.412 30.9955 169.748 31.443 169.748 32.3916C169.748 33.2507 170.202 33.7161 171.267 33.7161Z" fill="black"/>
<path d="M181.678 25.4827C183.32 25.4827 184.647 26.4493 184.647 28.5434V34.8795H182.936V29.0267C182.936 27.8096 182.412 26.9862 181.12 26.9862C179.653 26.9862 178.71 27.899 178.71 29.2772V34.8795H176.999V25.7512H178.71V26.8967H178.745C179.216 26.1987 180.142 25.4827 181.678 25.4827Z" fill="black"/>
<path d="M188.26 35.1301C186.479 35.1301 185.344 34.074 185.344 32.5169C185.344 30.4764 186.846 29.8679 189.063 29.4383C190.46 29.1698 191.316 28.9909 191.316 28.0959C191.316 27.4337 190.932 26.8788 189.622 26.8788C188.068 26.8788 187.597 27.38 187.509 28.5971H185.763C185.851 26.843 186.968 25.4648 189.692 25.4648C191.525 25.4648 192.992 26.2524 192.992 28.615V32.8032C192.992 33.4655 193.079 33.8056 193.411 33.8056C193.463 33.8056 193.516 33.8056 193.621 33.7877V34.8616C193.324 34.9332 193.027 34.969 192.748 34.969C191.892 34.969 191.438 34.6289 191.333 33.5908H191.298C190.722 34.5394 189.709 35.1301 188.26 35.1301ZM188.644 33.7161C190.181 33.7161 191.316 32.9106 191.316 31.3177V30.0111C191.036 30.2795 190.268 30.4764 189.36 30.6733C187.789 30.9955 187.125 31.443 187.125 32.3916C187.125 33.2507 187.579 33.7161 188.644 33.7161Z" fill="black"/>
<path d="M198.514 25.5364C198.828 25.5364 199.073 25.5543 199.335 25.5901V27.2726C199.125 27.2368 198.968 27.2189 198.758 27.2189C197.204 27.2189 196.087 28.4181 196.087 30.1543V34.8795H194.376V25.7512H196.087V27.4874H196.122C196.593 26.3419 197.309 25.5364 198.514 25.5364Z" fill="black"/>
<path d="M200.934 38.0833C200.55 38.0833 200.288 38.0475 199.834 37.958V36.5261C200.131 36.5619 200.288 36.5798 200.567 36.5798C201.248 36.5798 202.052 36.2219 202.401 34.79L198.804 25.7512H200.672L203.274 32.7316H203.309L205.753 25.7512H207.552L204.025 35.0943C203.169 37.3495 202.314 38.0833 200.934 38.0833Z" fill="black"/>
</g>
<rect x="21.4924" y="7.70639" width="304.274" height="375.806" rx="15.9265" stroke="#ECECEC" stroke-width="1.02752"/>
</g>
<g filter="url(#filter1_d_259_81)">
<rect x="88.912" y="23.5447" width="59.8613" height="59.8613" rx="6.56015" fill="white"/>
<rect x="89.322" y="23.9547" width="59.0413" height="59.0413" rx="6.15014" stroke="#ECECEC" stroke-width="0.820019"/>
<path d="M115.153 47.6329V39.4327H116.771V42.9042H120.91V39.4327H122.533V47.6329H120.91V44.1494H116.771V47.6329H115.153Z" fill="#7B00D8"/>
<path d="M99.6662 65.518V57.1687H101.179V60.7033H105.048V57.1687H106.564V65.518H105.048V61.9712H101.179V65.518H99.6662ZM110.686 65.6403C110.059 65.6403 109.516 65.5099 109.06 65.2489C108.606 64.9853 108.257 64.613 108.012 64.1319C107.767 63.6481 107.645 63.0787 107.645 62.4237C107.645 61.7796 107.767 61.2143 108.012 60.7278C108.259 60.2386 108.605 59.8581 109.048 59.5863C109.491 59.3118 110.011 59.1745 110.609 59.1745C110.995 59.1745 111.359 59.237 111.702 59.362C112.047 59.4843 112.351 59.6746 112.615 59.9328C112.881 60.191 113.09 60.5199 113.243 60.9194C113.395 61.3162 113.471 61.7891 113.471 62.3381V62.7906H108.338V61.7959H112.056C112.054 61.5132 111.992 61.2618 111.873 61.0417C111.753 60.8188 111.586 60.6435 111.371 60.5158C111.159 60.388 110.912 60.3242 110.629 60.3242C110.328 60.3242 110.063 60.3975 109.834 60.5443C109.606 60.6884 109.428 60.8786 109.3 61.1151C109.175 61.3488 109.111 61.6056 109.109 61.8856V62.7539C109.109 63.1181 109.175 63.4307 109.309 63.6916C109.442 63.9498 109.628 64.1482 109.867 64.2868C110.106 64.4227 110.386 64.4907 110.707 64.4907C110.922 64.4907 111.116 64.4608 111.29 64.401C111.464 64.3385 111.615 64.2474 111.742 64.1278C111.87 64.0082 111.967 63.8601 112.032 63.6834L113.41 63.8384C113.323 64.2026 113.157 64.5205 112.912 64.7923C112.671 65.0614 112.361 65.2707 111.983 65.4202C111.605 65.5669 111.173 65.6403 110.686 65.6403ZM116.292 65.6444C115.895 65.6444 115.538 65.5737 115.22 65.4324C114.904 65.2883 114.654 65.0764 114.469 64.7964C114.287 64.5165 114.196 64.1713 114.196 63.7609C114.196 63.4076 114.262 63.1154 114.392 62.8844C114.522 62.6534 114.7 62.4686 114.926 62.33C115.152 62.1913 115.406 62.0867 115.688 62.016C115.974 61.9427 116.269 61.8897 116.573 61.857C116.94 61.819 117.238 61.785 117.466 61.7551C117.694 61.7225 117.86 61.6736 117.963 61.6084C118.069 61.5404 118.122 61.4358 118.122 61.2944V61.27C118.122 60.9629 118.031 60.7251 117.849 60.5565C117.667 60.388 117.405 60.3038 117.062 60.3038C116.701 60.3038 116.414 60.3826 116.202 60.5402C115.993 60.6979 115.851 60.884 115.778 61.0988L114.4 60.9031C114.509 60.5226 114.688 60.2046 114.938 59.9491C115.188 59.6909 115.494 59.4979 115.856 59.3702C116.217 59.2397 116.617 59.1745 117.054 59.1745C117.356 59.1745 117.656 59.2098 117.955 59.2805C118.254 59.3512 118.527 59.468 118.775 59.6311C119.022 59.7915 119.22 60.0103 119.37 60.2875C119.522 60.5647 119.598 60.9112 119.598 61.3271V65.518H118.179V64.6578H118.13C118.041 64.8317 117.914 64.9948 117.751 65.147C117.591 65.2965 117.388 65.4174 117.144 65.5099C116.902 65.5995 116.618 65.6444 116.292 65.6444ZM116.675 64.56C116.971 64.56 117.228 64.5015 117.446 64.3847C117.663 64.2651 117.83 64.1074 117.947 63.9117C118.067 63.7161 118.126 63.5027 118.126 63.2717V62.5338C118.08 62.5718 118.001 62.6072 117.89 62.6398C117.781 62.6724 117.659 62.7009 117.523 62.7254C117.387 62.7499 117.253 62.7716 117.119 62.7906C116.986 62.8097 116.871 62.826 116.773 62.8395C116.553 62.8694 116.356 62.9184 116.182 62.9863C116.008 63.0543 115.871 63.1494 115.77 63.2717C115.669 63.3913 115.619 63.5462 115.619 63.7364C115.619 64.0082 115.718 64.2134 115.917 64.352C116.115 64.4907 116.368 64.56 116.675 64.56ZM123.176 65.6281C122.684 65.6281 122.244 65.5017 121.855 65.2489C121.467 64.9962 121.16 64.6293 120.934 64.1482C120.708 63.6671 120.596 63.0828 120.596 62.3952C120.596 61.6994 120.71 61.1123 120.938 60.634C121.169 60.1529 121.48 59.7901 121.872 59.5455C122.263 59.2982 122.699 59.1745 123.18 59.1745C123.547 59.1745 123.849 59.237 124.085 59.362C124.322 59.4843 124.509 59.6325 124.648 59.8064C124.787 59.9776 124.894 60.1394 124.97 60.2916H125.031V57.1687H126.511V65.518H125.06V64.5314H124.97C124.894 64.6836 124.784 64.8453 124.64 65.0166C124.496 65.1851 124.305 65.3291 124.069 65.4487C123.833 65.5683 123.535 65.6281 123.176 65.6281ZM123.588 64.4173C123.901 64.4173 124.167 64.333 124.387 64.1645C124.607 63.9933 124.774 63.7555 124.888 63.4511C125.003 63.1467 125.06 62.792 125.06 62.387C125.06 61.9821 125.003 61.6301 124.888 61.3311C124.777 61.0322 124.611 60.7998 124.391 60.634C124.174 60.4682 123.906 60.3853 123.588 60.3853C123.259 60.3853 122.985 60.4709 122.764 60.6422C122.544 60.8134 122.379 61.0498 122.267 61.3515C122.156 61.6532 122.1 61.9984 122.1 62.387C122.1 62.7784 122.156 63.1276 122.267 63.4348C122.381 63.7392 122.548 63.9797 122.769 64.1564C122.991 64.3303 123.265 64.4173 123.588 64.4173ZM130.626 65.6403C129.998 65.6403 129.456 65.5099 129 65.2489C128.546 64.9853 128.196 64.613 127.952 64.1319C127.707 63.6481 127.585 63.0787 127.585 62.4237C127.585 61.7796 127.707 61.2143 127.952 60.7278C128.199 60.2386 128.544 59.8581 128.987 59.5863C129.43 59.3118 129.951 59.1745 130.549 59.1745C130.935 59.1745 131.299 59.237 131.641 59.362C131.987 59.4843 132.291 59.6746 132.555 59.9328C132.821 60.191 133.03 60.5199 133.182 60.9194C133.335 61.3162 133.411 61.7891 133.411 62.3381V62.7906H128.278V61.7959H131.996C131.993 61.5132 131.932 61.2618 131.813 61.0417C131.693 60.8188 131.526 60.6435 131.311 60.5158C131.099 60.388 130.852 60.3242 130.569 60.3242C130.267 60.3242 130.003 60.3975 129.774 60.5443C129.546 60.6884 129.368 60.8786 129.24 61.1151C129.115 61.3488 129.051 61.6056 129.049 61.8856V62.7539C129.049 63.1181 129.115 63.4307 129.248 63.6916C129.381 63.9498 129.568 64.1482 129.807 64.2868C130.046 64.4227 130.326 64.4907 130.647 64.4907C130.861 64.4907 131.056 64.4608 131.23 64.401C131.404 64.3385 131.554 64.2474 131.682 64.1278C131.81 64.0082 131.906 63.8601 131.972 63.6834L133.35 63.8384C133.263 64.2026 133.097 64.5205 132.852 64.7923C132.61 65.0614 132.3 65.2707 131.923 65.4202C131.545 65.5669 131.113 65.6403 130.626 65.6403ZM134.43 65.518V59.256H135.861V60.2997H135.926C136.04 59.9382 136.236 59.6596 136.513 59.464C136.793 59.2656 137.112 59.1664 137.471 59.1664C137.552 59.1664 137.643 59.1704 137.744 59.1786C137.847 59.184 137.933 59.1935 138.001 59.2071V60.5647C137.938 60.543 137.839 60.5239 137.703 60.5076C137.57 60.4886 137.441 60.4791 137.316 60.4791C137.047 60.4791 136.805 60.5375 136.59 60.6544C136.378 60.7685 136.211 60.9275 136.089 61.1314C135.967 61.3352 135.905 61.5703 135.905 61.8367V65.518H134.43Z" fill="black"/>
</g>
<g filter="url(#filter2_d_259_81)">
<rect x="264.913" y="141.452" width="59.8613" height="59.8613" rx="6.56015" fill="white"/>
<rect x="265.323" y="141.862" width="59.0413" height="59.0413" rx="6.15014" stroke="#ECECEC" stroke-width="0.820019"/>
<path d="M291.3 159.021V157.753H297.962V159.021H295.381V166.102H293.881V159.021H291.3Z" fill="#7B00D8"/>
<path d="M283.3 178.581V177.313H289.962V178.581H287.381V185.662H285.881V178.581H283.3ZM292.815 185.785C292.187 185.785 291.645 185.654 291.189 185.393C290.735 185.13 290.386 184.757 290.141 184.276C289.896 183.793 289.774 183.223 289.774 182.568C289.774 181.924 289.896 181.359 290.141 180.872C290.388 180.383 290.733 180.003 291.176 179.731C291.619 179.456 292.14 179.319 292.738 179.319C293.124 179.319 293.488 179.381 293.83 179.507C294.176 179.629 294.48 179.819 294.744 180.077C295.01 180.335 295.219 180.664 295.371 181.064C295.524 181.461 295.6 181.934 295.6 182.483V182.935H290.467V181.94H294.185C294.182 181.658 294.121 181.406 294.002 181.186C293.882 180.963 293.715 180.788 293.5 180.66C293.288 180.533 293.041 180.469 292.758 180.469C292.457 180.469 292.192 180.542 291.963 180.689C291.735 180.833 291.557 181.023 291.429 181.26C291.304 181.493 291.24 181.75 291.238 182.03V182.898C291.238 183.263 291.304 183.575 291.437 183.836C291.571 184.094 291.757 184.293 291.996 184.431C292.235 184.567 292.515 184.635 292.836 184.635C293.05 184.635 293.245 184.605 293.419 184.545C293.593 184.483 293.743 184.392 293.871 184.272C293.999 184.153 294.095 184.005 294.161 183.828L295.539 183.983C295.452 184.347 295.286 184.665 295.041 184.937C294.799 185.206 294.49 185.415 294.112 185.565C293.734 185.711 293.302 185.785 292.815 185.785ZM297.691 179.401L298.955 181.712L300.239 179.401H301.8L299.913 182.531L301.833 185.662H300.28L298.955 183.408L297.642 185.662H296.076L297.984 182.531L296.125 179.401H297.691ZM305.839 179.401V180.542H302.239V179.401H305.839ZM303.128 177.9H304.604V183.779C304.604 183.977 304.634 184.13 304.694 184.236C304.756 184.339 304.838 184.41 304.938 184.448C305.039 184.486 305.15 184.505 305.272 184.505C305.365 184.505 305.449 184.498 305.525 184.484C305.604 184.471 305.664 184.458 305.705 184.448L305.953 185.601C305.874 185.629 305.762 185.658 305.615 185.691C305.471 185.724 305.294 185.743 305.085 185.748C304.715 185.759 304.382 185.703 304.086 185.581C303.79 185.456 303.555 185.263 303.381 185.002C303.21 184.741 303.125 184.415 303.128 184.024V177.9Z" fill="black"/>
</g>
<g filter="url(#filter3_d_259_81)">
<rect x="204.669" y="312.468" width="59.8613" height="59.8613" rx="6.56015" fill="white"/>
<rect x="205.079" y="312.878" width="59.0413" height="59.0413" rx="6.15014" stroke="#ECECEC" stroke-width="0.820019"/>
<path d="M231.423 337.119V328.77H234.619C235.222 328.77 235.724 328.865 236.123 329.055C236.526 329.243 236.826 329.499 237.024 329.826C237.226 330.152 237.326 330.521 237.326 330.934C237.326 331.274 237.261 331.565 237.13 331.807C237 332.046 236.825 332.24 236.604 332.39C236.384 332.539 236.138 332.647 235.867 332.712V332.793C236.163 332.81 236.447 332.901 236.719 333.067C236.993 333.23 237.217 333.461 237.391 333.76C237.565 334.059 237.652 334.42 237.652 334.844C237.652 335.276 237.548 335.665 237.338 336.01C237.129 336.353 236.814 336.623 236.392 336.821C235.971 337.02 235.441 337.119 234.803 337.119H231.423ZM232.935 335.855H234.562C235.111 335.855 235.506 335.751 235.748 335.541C235.993 335.329 236.115 335.057 236.115 334.726C236.115 334.479 236.054 334.256 235.932 334.057C235.81 333.856 235.636 333.699 235.41 333.584C235.184 333.468 234.915 333.409 234.603 333.409H232.935V335.855ZM232.935 332.321H234.432C234.692 332.321 234.928 332.273 235.137 332.178C235.346 332.08 235.511 331.943 235.63 331.766C235.752 331.587 235.814 331.375 235.814 331.13C235.814 330.807 235.699 330.54 235.471 330.331C235.246 330.122 234.91 330.017 234.464 330.017H232.935V332.321Z" fill="#7B00D8"/>
<path d="M216.923 356.679V348.33H220.119C220.722 348.33 221.224 348.425 221.623 348.615C222.026 348.803 222.326 349.06 222.524 349.386C222.726 349.712 222.826 350.082 222.826 350.495C222.826 350.834 222.761 351.125 222.63 351.367C222.5 351.606 222.325 351.801 222.104 351.95C221.884 352.1 221.638 352.207 221.367 352.272V352.354C221.663 352.37 221.947 352.461 222.219 352.627C222.493 352.79 222.717 353.021 222.891 353.32C223.065 353.619 223.152 353.98 223.152 354.404C223.152 354.836 223.048 355.225 222.838 355.57C222.629 355.913 222.314 356.183 221.892 356.382C221.471 356.58 220.941 356.679 220.303 356.679H216.923ZM218.435 355.415H220.062C220.611 355.415 221.006 355.311 221.248 355.101C221.493 354.889 221.615 354.618 221.615 354.286C221.615 354.039 221.554 353.816 221.432 353.617C221.31 353.416 221.136 353.259 220.91 353.145C220.684 353.028 220.415 352.969 220.103 352.969H218.435V355.415ZM218.435 351.881H219.932C220.192 351.881 220.428 351.833 220.637 351.738C220.846 351.64 221.011 351.503 221.13 351.326C221.252 351.147 221.314 350.935 221.314 350.69C221.314 350.367 221.199 350.101 220.971 349.891C220.746 349.682 220.41 349.577 219.964 349.577H218.435V351.881ZM228.164 354.046V350.417H229.64V356.679H228.209V355.566H228.144C228.003 355.917 227.77 356.204 227.447 356.426C227.126 356.649 226.731 356.761 226.26 356.761C225.85 356.761 225.487 356.67 225.172 356.488C224.859 356.303 224.615 356.035 224.438 355.684C224.262 355.331 224.173 354.904 224.173 354.404V350.417H225.649V354.176C225.649 354.573 225.758 354.888 225.975 355.122C226.193 355.356 226.478 355.472 226.831 355.472C227.049 355.472 227.259 355.419 227.463 355.313C227.667 355.207 227.834 355.05 227.965 354.841C228.098 354.629 228.164 354.364 228.164 354.046ZM234.055 350.417V351.559H230.455V350.417H234.055ZM231.344 348.917H232.82V354.796C232.82 354.994 232.85 355.146 232.909 355.252C232.972 355.356 233.054 355.426 233.154 355.464C233.255 355.502 233.366 355.521 233.488 355.521C233.581 355.521 233.665 355.515 233.741 355.501C233.82 355.487 233.88 355.475 233.921 355.464L234.169 356.618C234.09 356.645 233.978 356.675 233.831 356.708C233.687 356.74 233.51 356.759 233.301 356.765C232.931 356.776 232.598 356.72 232.302 356.598C232.006 356.473 231.771 356.28 231.597 356.019C231.426 355.758 231.341 355.432 231.344 355.04V348.917ZM238.187 350.417V351.559H234.587V350.417H238.187ZM235.476 348.917H236.951V354.796C236.951 354.994 236.981 355.146 237.041 355.252C237.104 355.356 237.185 355.426 237.286 355.464C237.386 355.502 237.498 355.521 237.62 355.521C237.712 355.521 237.797 355.515 237.873 355.501C237.951 355.487 238.011 355.475 238.052 355.464L238.301 356.618C238.222 356.645 238.109 356.675 237.962 356.708C237.818 356.74 237.642 356.759 237.432 356.765C237.063 356.776 236.73 356.72 236.434 356.598C236.137 356.473 235.902 356.28 235.728 356.019C235.557 355.758 235.473 355.432 235.476 355.04V348.917ZM241.855 356.801C241.244 356.801 240.714 356.667 240.265 356.398C239.817 356.129 239.469 355.752 239.222 355.269C238.977 354.785 238.855 354.219 238.855 353.573C238.855 352.926 238.977 352.359 239.222 351.873C239.469 351.386 239.817 351.008 240.265 350.739C240.714 350.47 241.244 350.336 241.855 350.336C242.467 350.336 242.997 350.47 243.445 350.739C243.894 351.008 244.24 351.386 244.485 351.873C244.732 352.359 244.856 352.926 244.856 353.573C244.856 354.219 244.732 354.785 244.485 355.269C244.24 355.752 243.894 356.129 243.445 356.398C242.997 356.667 242.467 356.801 241.855 356.801ZM241.864 355.619C242.195 355.619 242.472 355.528 242.695 355.346C242.918 355.161 243.084 354.914 243.193 354.604C243.304 354.294 243.36 353.949 243.36 353.569C243.36 353.185 243.304 352.839 243.193 352.529C243.084 352.216 242.918 351.968 242.695 351.783C242.472 351.598 242.195 351.506 241.864 351.506C241.524 351.506 241.241 351.598 241.016 351.783C240.793 351.968 240.626 352.216 240.514 352.529C240.405 352.839 240.351 353.185 240.351 353.569C240.351 353.949 240.405 354.294 240.514 354.604C240.626 354.914 240.793 355.161 241.016 355.346C241.241 355.528 241.524 355.619 241.864 355.619ZM247.355 353.01V356.679H245.879V350.417H247.29V351.481H247.363C247.507 351.131 247.737 350.852 248.052 350.645C248.37 350.439 248.763 350.336 249.23 350.336C249.662 350.336 250.039 350.428 250.359 350.613C250.683 350.798 250.933 351.065 251.109 351.416C251.289 351.767 251.377 352.192 251.374 352.692V356.679H249.899V352.92C249.899 352.502 249.79 352.174 249.573 351.938C249.358 351.701 249.06 351.583 248.68 351.583C248.421 351.583 248.192 351.64 247.991 351.754C247.792 351.866 247.636 352.028 247.522 352.24C247.41 352.452 247.355 352.708 247.355 353.01Z" fill="black"/>
</g>
<g filter="url(#filter4_d_259_81)">
<rect x="3.28003" y="230.958" width="72.6804" height="59.8613" rx="6.56015" fill="white"/>
<rect x="3.69004" y="231.368" width="71.8604" height="59.0413" rx="6.15014" stroke="#ECECEC" stroke-width="0.820019"/>
<rect x="35.7473" y="247.073" width="7.74572" height="7.74572" stroke="black" stroke-width="0.860635"/>
<path d="M21.0904 267.602H19.5657C19.5222 267.352 19.442 267.13 19.3251 266.937C19.2083 266.742 19.0628 266.576 18.8889 266.44C18.715 266.304 18.5166 266.202 18.2937 266.134C18.0735 266.064 17.8357 266.028 17.5803 266.028C17.1264 266.028 16.7241 266.142 16.3735 266.371C16.0229 266.596 15.7484 266.928 15.55 267.365C15.3516 267.8 15.2524 268.332 15.2524 268.96C15.2524 269.598 15.3516 270.136 15.55 270.574C15.7511 271.009 16.0256 271.338 16.3735 271.561C16.7241 271.781 17.125 271.891 17.5762 271.891C17.8262 271.891 18.06 271.858 18.2774 271.793C18.4975 271.725 18.6946 271.626 18.8685 271.495C19.0452 271.365 19.1933 271.204 19.3129 271.014C19.4352 270.824 19.5195 270.607 19.5657 270.362L21.0904 270.37C21.0333 270.767 20.9096 271.139 20.7194 271.487C20.5319 271.835 20.2859 272.142 19.9815 272.408C19.6771 272.672 19.321 272.879 18.9134 273.028C18.5057 273.175 18.0532 273.248 17.5558 273.248C16.822 273.248 16.167 273.078 15.5908 272.739C15.0146 272.399 14.5607 271.908 14.2291 271.267C13.8975 270.626 13.7318 269.856 13.7318 268.96C13.7318 268.06 13.8989 267.291 14.2332 266.652C14.5675 266.011 15.0227 265.52 15.5989 265.18C16.1751 264.841 16.8274 264.671 17.5558 264.671C18.0205 264.671 18.4527 264.736 18.8522 264.866C19.2517 264.997 19.6078 265.188 19.9203 265.441C20.2329 265.691 20.4897 265.998 20.6909 266.363C20.8947 266.724 21.0279 267.137 21.0904 267.602ZM24.9121 273.256C24.3006 273.256 23.7706 273.122 23.3221 272.853C22.8737 272.584 22.5258 272.207 22.2785 271.724C22.0339 271.24 21.9116 270.674 21.9116 270.028C21.9116 269.381 22.0339 268.814 22.2785 268.328C22.5258 267.841 22.8737 267.463 23.3221 267.194C23.7706 266.925 24.3006 266.791 24.9121 266.791C25.5236 266.791 26.0536 266.925 26.502 267.194C26.9505 267.463 27.297 267.841 27.5416 268.328C27.7889 268.814 27.9126 269.381 27.9126 270.028C27.9126 270.674 27.7889 271.24 27.5416 271.724C27.297 272.207 26.9505 272.584 26.502 272.853C26.0536 273.122 25.5236 273.256 24.9121 273.256ZM24.9202 272.074C25.2518 272.074 25.529 271.983 25.7519 271.801C25.9748 271.616 26.1406 271.369 26.2493 271.059C26.3607 270.749 26.4164 270.404 26.4164 270.024C26.4164 269.64 26.3607 269.294 26.2493 268.984C26.1406 268.671 25.9748 268.423 25.7519 268.238C25.529 268.053 25.2518 267.961 24.9202 267.961C24.5805 267.961 24.2979 268.053 24.0723 268.238C23.8494 268.423 23.6823 268.671 23.5708 268.984C23.4621 269.294 23.4078 269.64 23.4078 270.024C23.4078 270.404 23.4621 270.749 23.5708 271.059C23.6823 271.369 23.8494 271.616 24.0723 271.801C24.2979 271.983 24.5805 272.074 24.9202 272.074ZM30.4114 269.465V273.134H28.9356V266.872H30.3462V267.936H30.4196C30.5636 267.586 30.7933 267.307 31.1085 267.1C31.4265 266.894 31.8193 266.791 32.2867 266.791C32.7189 266.791 33.0953 266.883 33.416 267.068C33.7394 267.253 33.9895 267.52 34.1661 267.871C34.3455 268.222 34.4338 268.647 34.4311 269.147V273.134H32.9553V269.375C32.9553 268.957 32.8466 268.629 32.6292 268.393C32.4145 268.156 32.1169 268.038 31.7364 268.038C31.4782 268.038 31.2485 268.095 31.0474 268.209C30.849 268.321 30.6927 268.483 30.5785 268.695C30.4671 268.907 30.4114 269.163 30.4114 269.465ZM38.8287 266.872V268.014H35.2289V266.872H38.8287ZM36.1176 265.372H37.5934V271.251C37.5934 271.449 37.6233 271.601 37.6831 271.707C37.7456 271.811 37.8271 271.881 37.9277 271.919C38.0283 271.957 38.1397 271.976 38.262 271.976C38.3544 271.976 38.4387 271.97 38.5148 271.956C38.5936 271.942 38.6534 271.93 38.6941 271.919L38.9428 273.073C38.864 273.1 38.7512 273.13 38.6045 273.163C38.4604 273.195 38.2838 273.214 38.0745 273.22C37.7048 273.231 37.3719 273.175 37.0757 273.053C36.7794 272.928 36.5443 272.735 36.3704 272.474C36.1991 272.213 36.1149 271.887 36.1176 271.495V265.372ZM41.6353 273.261C41.2385 273.261 40.8811 273.19 40.5631 273.049C40.2478 272.904 39.9978 272.693 39.8129 272.413C39.6308 272.133 39.5398 271.787 39.5398 271.377C39.5398 271.024 39.605 270.732 39.7355 270.501C39.8659 270.27 40.044 270.085 40.2695 269.946C40.4951 269.807 40.7492 269.703 41.0319 269.632C41.3173 269.559 41.6122 269.506 41.9166 269.473C42.2835 269.435 42.5811 269.401 42.8094 269.371C43.0377 269.339 43.2035 269.29 43.3068 269.225C43.4128 269.157 43.4658 269.052 43.4658 268.911V268.886C43.4658 268.579 43.3747 268.341 43.1926 268.173C43.0105 268.004 42.7482 267.92 42.4058 267.92C42.0443 267.92 41.7576 267.999 41.5456 268.156C41.3363 268.314 41.195 268.5 41.1216 268.715L39.7436 268.519C39.8524 268.139 40.0317 267.821 40.2818 267.565C40.5318 267.307 40.8376 267.114 41.1991 266.986C41.5605 266.856 41.9601 266.791 42.3976 266.791C42.6993 266.791 42.9996 266.826 43.2986 266.897C43.5976 266.967 43.8707 267.084 44.118 267.247C44.3654 267.408 44.5638 267.626 44.7133 267.904C44.8655 268.181 44.9416 268.527 44.9416 268.943V273.134H43.5228V272.274H43.4739C43.3842 272.448 43.2578 272.611 43.0948 272.763C42.9344 272.913 42.7319 273.034 42.4873 273.126C42.2454 273.216 41.9614 273.261 41.6353 273.261ZM42.0185 272.176C42.3147 272.176 42.5716 272.118 42.789 272.001C43.0064 271.881 43.1736 271.724 43.2905 271.528C43.41 271.332 43.4698 271.119 43.4698 270.888V270.15C43.4236 270.188 43.3448 270.223 43.2334 270.256C43.1247 270.289 43.0024 270.317 42.8665 270.342C42.7306 270.366 42.596 270.388 42.4629 270.407C42.3297 270.426 42.2142 270.442 42.1163 270.456C41.8962 270.486 41.6991 270.535 41.5252 270.602C41.3513 270.67 41.214 270.766 41.1134 270.888C41.0129 271.007 40.9626 271.162 40.9626 271.353C40.9626 271.624 41.0618 271.83 41.2602 271.968C41.4586 272.107 41.7114 272.176 42.0185 272.176ZM46.1959 273.134V266.872H47.6717V273.134H46.1959ZM46.9379 265.983C46.7041 265.983 46.503 265.906 46.3345 265.751C46.166 265.593 46.0818 265.405 46.0818 265.184C46.0818 264.962 46.166 264.773 46.3345 264.618C46.503 264.46 46.7041 264.381 46.9379 264.381C47.1743 264.381 47.3755 264.46 47.5412 264.618C47.7098 264.773 47.794 264.962 47.794 265.184C47.794 265.405 47.7098 265.593 47.5412 265.751C47.3755 265.906 47.1743 265.983 46.9379 265.983ZM50.4355 269.465V273.134H48.9597V266.872H50.3703V267.936H50.4436C50.5877 267.586 50.8173 267.307 51.1326 267.1C51.4506 266.894 51.8433 266.791 52.3108 266.791C52.743 266.791 53.1194 266.883 53.4401 267.068C53.7635 267.253 54.0136 267.52 54.1902 267.871C54.3696 268.222 54.4579 268.647 54.4552 269.147V273.134H52.9794V269.375C52.9794 268.957 52.8707 268.629 52.6533 268.393C52.4386 268.156 52.1409 268.038 51.7604 268.038C51.5022 268.038 51.2726 268.095 51.0715 268.209C50.8731 268.321 50.7168 268.483 50.6026 268.695C50.4912 268.907 50.4355 269.163 50.4355 269.465ZM58.4981 273.256C57.8703 273.256 57.328 273.126 56.8714 272.865C56.4176 272.601 56.0683 272.229 55.8237 271.748C55.5791 271.264 55.4568 270.695 55.4568 270.04C55.4568 269.396 55.5791 268.83 55.8237 268.344C56.071 267.855 56.4162 267.474 56.8592 267.202C57.3022 266.928 57.8227 266.791 58.4206 266.791C58.8066 266.791 59.1708 266.853 59.5132 266.978C59.8584 267.1 60.1628 267.291 60.4264 267.549C60.6928 267.807 60.902 268.136 61.0542 268.536C61.2064 268.932 61.2825 269.405 61.2825 269.954V270.407H56.1498V269.412H59.8679C59.8652 269.129 59.804 268.878 59.6844 268.658C59.5648 268.435 59.3977 268.26 59.183 268.132C58.971 268.004 58.7237 267.94 58.441 267.94C58.1393 267.94 57.8743 268.014 57.646 268.16C57.4177 268.305 57.2397 268.495 57.112 268.731C56.987 268.965 56.9231 269.222 56.9204 269.502V270.37C56.9204 270.734 56.987 271.047 57.1201 271.308C57.2533 271.566 57.4395 271.764 57.6786 271.903C57.9178 272.039 58.1978 272.107 58.5185 272.107C58.7332 272.107 58.9275 272.077 59.1015 272.017C59.2754 271.955 59.4262 271.864 59.554 271.744C59.6817 271.624 59.7782 271.476 59.8434 271.3L61.2214 271.455C61.1344 271.819 60.9686 272.137 60.724 272.408C60.4821 272.678 60.1723 272.887 59.7945 273.036C59.4167 273.183 58.9846 273.256 58.4981 273.256ZM62.3014 273.134V266.872H63.7324V267.916H63.7976C63.9118 267.554 64.1075 267.276 64.3847 267.08C64.6646 266.882 64.984 266.783 65.3427 266.783C65.4243 266.783 65.5153 266.787 65.6159 266.795C65.7192 266.8 65.8048 266.81 65.8727 266.823V268.181C65.8102 268.159 65.711 268.14 65.5751 268.124C65.4419 268.105 65.3128 268.095 65.1878 268.095C64.9188 268.095 64.6769 268.154 64.4621 268.271C64.2502 268.385 64.083 268.544 63.9607 268.748C63.8384 268.951 63.7772 269.186 63.7772 269.453V273.134H62.3014Z" fill="black"/>
</g>
<g clip-path="url(#clip1_259_81)">
<path d="M131.236 79.6062V78.0645C131.236 77.6557 131.073 77.2635 130.784 76.9744C130.495 76.6853 130.103 76.5229 129.694 76.5229C129.285 76.5229 128.893 76.6853 128.604 76.9744C128.315 77.2635 128.152 77.6557 128.152 78.0645V77.2937C128.124 76.9053 127.95 76.5421 127.664 76.2769C127.379 76.0118 127.004 75.8644 126.615 75.8644C126.225 75.8644 125.85 76.0118 125.565 76.2769C125.28 76.5421 125.106 76.9053 125.077 77.2937V78.0645C125.049 77.6762 124.875 77.3129 124.589 77.0478C124.304 76.7826 123.929 76.6353 123.54 76.6353C123.15 76.6353 122.775 76.7826 122.49 77.0478C122.205 77.3129 122.031 77.6762 122.002 78.0645V83.4439C121.598 83.4439 121.197 83.5237 120.824 83.6787C120.45 83.8338 120.111 84.061 119.825 84.3474C119.539 84.6338 119.313 84.9738 119.159 85.3478C119.005 85.7219 118.926 86.1226 118.927 86.5271C118.928 88.0324 119.398 89.4999 120.272 90.7256L121.395 92.2919C121.822 92.89 122.386 93.3777 123.039 93.7143C123.692 94.0509 124.416 94.2267 125.151 94.2271H129.079C130.118 94.2286 131.134 93.9218 131.998 93.3455C132.862 92.7691 133.536 91.9493 133.934 90.9897C134.199 90.3523 134.335 89.6691 134.335 88.979V79.6062C134.351 79.3948 134.322 79.1825 134.252 78.9826C134.182 78.7827 134.071 78.5994 133.927 78.4442C133.783 78.289 133.608 78.1652 133.414 78.0805C133.219 77.9959 133.01 77.9522 132.798 77.9522C132.586 77.9522 132.376 77.9959 132.182 78.0805C131.988 78.1652 131.813 78.289 131.669 78.4442C131.524 78.5994 131.414 78.7827 131.343 78.9826C131.273 79.1825 131.245 79.3948 131.26 79.6062H131.236ZM122.002 83.4439V85.7563V83.4439ZM125.077 81.9104V78.0645V81.9104ZM128.152 81.9104V78.0645V81.9104ZM131.236 81.9104V79.6062V81.9104Z" fill="white"/>
<path d="M131.236 79.6062V78.0645C131.236 77.6557 131.073 77.2635 130.784 76.9744C130.495 76.6853 130.103 76.5229 129.694 76.5229C129.285 76.5229 128.893 76.6853 128.604 76.9744C128.315 77.2635 128.152 77.6557 128.152 78.0645M131.236 79.6062H131.26C131.245 79.3948 131.273 79.1825 131.343 78.9826C131.414 78.7827 131.524 78.5994 131.669 78.4442C131.813 78.289 131.988 78.1652 132.182 78.0805C132.376 77.9959 132.586 77.9522 132.798 77.9522C133.01 77.9522 133.219 77.9959 133.414 78.0805C133.608 78.1652 133.783 78.289 133.927 78.4442C134.071 78.5994 134.182 78.7827 134.252 78.9826C134.322 79.1825 134.351 79.3948 134.335 79.6062V88.979C134.335 89.6691 134.199 90.3523 133.934 90.9897C133.536 91.9493 132.862 92.7691 131.998 93.3455C131.134 93.9218 130.118 94.2286 129.079 94.2271H125.151C124.416 94.2267 123.692 94.0509 123.039 93.7143C122.386 93.3777 121.822 92.89 121.395 92.2919L120.272 90.7256C119.398 89.4999 118.928 88.0324 118.927 86.5271C118.926 86.1226 119.005 85.7219 119.159 85.3478C119.313 84.9738 119.539 84.6338 119.825 84.3474C120.111 84.061 120.45 83.8338 120.824 83.6787C121.197 83.5237 121.598 83.4439 122.002 83.4439M131.236 79.6062V81.9104M128.152 78.0645V77.2937C128.124 76.9053 127.95 76.5421 127.664 76.2769C127.379 76.0118 127.004 75.8644 126.615 75.8644C126.225 75.8644 125.85 76.0118 125.565 76.2769C125.28 76.5421 125.106 76.9053 125.077 77.2937V78.0645M128.152 78.0645V81.9104M125.077 78.0645C125.049 77.6762 124.875 77.3129 124.589 77.0478C124.304 76.7826 123.929 76.6353 123.54 76.6353C123.15 76.6353 122.775 76.7826 122.49 77.0478C122.205 77.3129 122.031 77.6762 122.002 78.0645V83.4439M125.077 78.0645V81.9104M122.002 83.4439V85.7563" stroke="black" stroke-width="1.23003" stroke-linecap="round" stroke-linejoin="round"/>
</g>
<defs>
<filter id="filter0_dd_259_81" x="14.8135" y="5.126e-06" width="323.797" height="396.356" filterUnits="userSpaceOnUse" color-interpolation-filters="sRGB">
<feFlood flood-opacity="0" result="BackgroundImageFix"/>
<feColorMatrix in="SourceAlpha" type="matrix" values="0 0 0 0 0 0 0 0 0 0 0 0 0 0 0 0 0 0 127 0" result="hardAlpha"/>
<feMorphology radius="1.02752" operator="erode" in="SourceAlpha" result="effect1_dropShadow_259_81"/>
<feOffset dx="3.08255" dy="2.05503"/>
<feGaussianBlur stdDeviation="5.13759"/>
<feComposite in2="hardAlpha" operator="out"/>
<feColorMatrix type="matrix" values="0 0 0 0 0.482353 0 0 0 0 0 0 0 0 0 0.847059 0 0 0 0.46 0"/>
<feBlend mode="normal" in2="BackgroundImageFix" result="effect1_dropShadow_259_81"/>
<feColorMatrix in="SourceAlpha" type="matrix" values="0 0 0 0 0 0 0 0 0 0 0 0 0 0 0 0 0 0 127 0" result="hardAlpha"/>
<feOffset dx="5.13759" dy="8.22014"/>
<feGaussianBlur stdDeviation="2.05503"/>
<feComposite in2="hardAlpha" operator="out"/>
<feColorMatrix type="matrix" values="0 0 0 0 1 0 0 0 0 0.584314 0 0 0 0 0 0 0 0 0.25 0"/>
<feBlend mode="normal" in2="effect1_dropShadow_259_81" result="effect2_dropShadow_259_81"/>
<feBlend mode="normal" in="SourceGraphic" in2="effect2_dropShadow_259_81" result="shape"/>
</filter>
<filter id="filter1_d_259_81" x="85.6319" y="20.2646" width="66.4215" height="66.4215" filterUnits="userSpaceOnUse" color-interpolation-filters="sRGB">
<feFlood flood-opacity="0" result="BackgroundImageFix"/>
<feColorMatrix in="SourceAlpha" type="matrix" values="0 0 0 0 0 0 0 0 0 0 0 0 0 0 0 0 0 0 127 0" result="hardAlpha"/>
<feOffset/>
<feGaussianBlur stdDeviation="1.64004"/>
<feComposite in2="hardAlpha" operator="out"/>
<feColorMatrix type="matrix" values="0 0 0 0 0.725173 0 0 0 0 0.725173 0 0 0 0 0.725173 0 0 0 0.25 0"/>
<feBlend mode="normal" in2="BackgroundImageFix" result="effect1_dropShadow_259_81"/>
<feBlend mode="normal" in="SourceGraphic" in2="effect1_dropShadow_259_81" result="shape"/>
</filter>
<filter id="filter2_d_259_81" x="261.633" y="138.172" width="66.4215" height="66.4215" filterUnits="userSpaceOnUse" color-interpolation-filters="sRGB">
<feFlood flood-opacity="0" result="BackgroundImageFix"/>
<feColorMatrix in="SourceAlpha" type="matrix" values="0 0 0 0 0 0 0 0 0 0 0 0 0 0 0 0 0 0 127 0" result="hardAlpha"/>
<feOffset/>
<feGaussianBlur stdDeviation="1.64004"/>
<feComposite in2="hardAlpha" operator="out"/>
<feColorMatrix type="matrix" values="0 0 0 0 0.725173 0 0 0 0 0.725173 0 0 0 0 0.725173 0 0 0 0.25 0"/>
<feBlend mode="normal" in2="BackgroundImageFix" result="effect1_dropShadow_259_81"/>
<feBlend mode="normal" in="SourceGraphic" in2="effect1_dropShadow_259_81" result="shape"/>
</filter>
<filter id="filter3_d_259_81" x="201.389" y="309.188" width="66.4215" height="66.4215" filterUnits="userSpaceOnUse" color-interpolation-filters="sRGB">
<feFlood flood-opacity="0" result="BackgroundImageFix"/>
<feColorMatrix in="SourceAlpha" type="matrix" values="0 0 0 0 0 0 0 0 0 0 0 0 0 0 0 0 0 0 127 0" result="hardAlpha"/>
<feOffset/>
<feGaussianBlur stdDeviation="1.64004"/>
<feComposite in2="hardAlpha" operator="out"/>
<feColorMatrix type="matrix" values="0 0 0 0 0.725173 0 0 0 0 0.725173 0 0 0 0 0.725173 0 0 0 0.25 0"/>
<feBlend mode="normal" in2="BackgroundImageFix" result="effect1_dropShadow_259_81"/>
<feBlend mode="normal" in="SourceGraphic" in2="effect1_dropShadow_259_81" result="shape"/>
</filter>
<filter id="filter4_d_259_81" x="-4.48227e-05" y="227.678" width="79.2406" height="66.4215" filterUnits="userSpaceOnUse" color-interpolation-filters="sRGB">
<feFlood flood-opacity="0" result="BackgroundImageFix"/>
<feColorMatrix in="SourceAlpha" type="matrix" values="0 0 0 0 0 0 0 0 0 0 0 0 0 0 0 0 0 0 127 0" result="hardAlpha"/>
<feOffset/>
<feGaussianBlur stdDeviation="1.64004"/>
<feComposite in2="hardAlpha" operator="out"/>
<feColorMatrix type="matrix" values="0 0 0 0 0.725173 0 0 0 0 0.725173 0 0 0 0 0.725173 0 0 0 0.25 0"/>
<feBlend mode="normal" in2="BackgroundImageFix" result="effect1_dropShadow_259_81"/>
<feBlend mode="normal" in="SourceGraphic" in2="effect1_dropShadow_259_81" result="shape"/>
</filter>
<clipPath id="clip0_259_81">
<rect x="20.9786" y="7.19263" width="305.301" height="376.833" rx="16.4403" fill="white"/>
</clipPath>
<clipPath id="clip1_259_81">
<rect width="19.6804" height="19.6804" fill="white" transform="translate(116.793 75.2059)"/>
</clipPath>
</defs>
</svg>
