<svg width="117" height="28" viewBox="0 0 117 28" fill="none" xmlns="http://www.w3.org/2000/svg">
<path d="M4.99135 4.5911C4.99135 4.5911 14.6705 9.94203 15.9785 12.6175C17.2865 15.293 15.1937 16.8982 13.8857 17.7009C12.5777 18.5035 9.9617 18.236 7.34572 16.3631C4.72973 14.4903 2.637 12.6175 1.06738 9.94203C0.0673262 8.2374 -0.605109 6.22602 0.805784 4.85865C1.99458 3.70653 4.99135 4.5911 4.99135 4.5911Z" fill="#7B00D8"/>
<path d="M25.396 4.32356C25.396 4.32356 21.8384 12.5129 17.9405 11.5473C17.0077 11.3163 16.5047 11.0204 15.7169 10.4771C14.8235 9.86098 14.0204 8.90474 14.1473 7.80166C14.6705 3.25337 21.472 0.577908 21.472 0.577908C21.472 0.577908 24.6303 -0.722385 25.6576 0.577908C26.5588 1.71856 25.396 4.32356 25.396 4.32356Z" fill="#7B00D8"/>
<path d="M11.0081 19.5737C9.56126 18.9013 9.38813 18.7131 7.86891 18.236C6.4878 17.8022 5.54987 17.7916 4.46816 18.7711C3.15888 19.9566 2.83761 21.9352 3.94496 23.3194C6.29937 26.2624 6.03777 25.7273 9.43855 27.6001C10.6216 28.2516 13.9082 28.0004 15.1937 27.6001C19.901 26.1343 23.5648 17.9684 23.5648 17.9684C23.5648 17.9684 24.5586 15.015 23.5648 13.6877C22.3782 12.1028 21.2105 12.6175 19.9025 13.4201C17.8864 14.6573 14.889 21.3772 11.0081 19.5737Z" fill="#7B00D8"/>
<path d="M40.6411 22.8823C36.0138 22.8823 33 19.4496 33 14.4567C33 9.46383 36.0138 6.03121 40.6106 6.03121C44.5986 6.03121 47.2471 8.68369 47.6124 12.2723H44.5377C44.3855 10.6184 43.4722 8.55886 40.6411 8.55886C37.3228 8.55886 36.1051 11.461 36.1051 14.4567C36.1051 17.4525 37.3228 20.3234 40.6411 20.3234C43.5026 20.3234 44.3855 18.3262 44.5377 16.5163H47.6124C47.3993 20.1674 44.629 22.8823 40.6411 22.8823Z" fill="black"/>
<path d="M53.0692 22.8511C49.9641 22.8511 47.9853 21.0099 47.9853 18.295C47.9853 14.7376 50.6033 13.6766 54.4695 12.9277C56.9049 12.4596 58.3966 12.1475 58.3966 10.5872C58.3966 9.43262 57.7269 8.46525 55.4437 8.46525C52.7343 8.46525 51.9124 9.33901 51.7602 11.461H48.7159C48.8681 8.40284 50.8164 6 55.5655 6C58.7619 6 61.3191 7.37305 61.3191 11.4922V18.7943C61.3191 19.9489 61.4713 20.5418 62.0497 20.5418C62.141 20.5418 62.2324 20.5418 62.415 20.5106V22.383C61.8975 22.5078 61.38 22.5702 60.8929 22.5702C59.4012 22.5702 58.6097 21.9773 58.4271 20.1674H58.3662C57.3616 21.8213 55.5959 22.8511 53.0692 22.8511ZM53.7389 20.3858C56.4179 20.3858 58.3966 18.9816 58.3966 16.2043V13.9262C57.9095 14.3943 56.5701 14.7376 54.9871 15.0809C52.2472 15.6426 51.0904 16.4227 51.0904 18.0766C51.0904 19.5745 51.8819 20.3858 53.7389 20.3858Z" fill="black"/>
<path d="M71.8902 6.03121C74.7518 6.03121 77.0655 7.71631 77.0655 11.3674V22.4142H74.0821V12.2099C74.0821 10.0879 73.1688 8.65248 70.9161 8.65248C68.3589 8.65248 66.715 10.244 66.715 12.6468V22.4142H63.7317V6.49929H66.715V8.49645H66.7759C67.5978 7.27943 69.2113 6.03121 71.8902 6.03121Z" fill="black"/>
<path d="M83.3654 22.8511C80.2602 22.8511 78.2815 21.0099 78.2815 18.295C78.2815 14.7376 80.8995 13.6766 84.7657 12.9277C87.2011 12.4596 88.6928 12.1475 88.6928 10.5872C88.6928 9.43262 88.0231 8.46525 85.7399 8.46525C83.0305 8.46525 82.2086 9.33901 82.0564 11.461H79.0121C79.1643 8.40284 81.1126 6 85.8617 6C89.0581 6 91.6153 7.37305 91.6153 11.4922V18.7943C91.6153 19.9489 91.7675 20.5418 92.3459 20.5418C92.4372 20.5418 92.5286 20.5418 92.7112 20.5106V22.383C92.1937 22.5078 91.6762 22.5702 91.1891 22.5702C89.6974 22.5702 88.9059 21.9773 88.7232 20.1674H88.6624C87.6578 21.8213 85.8921 22.8511 83.3654 22.8511ZM84.0351 20.3858C86.714 20.3858 88.6928 18.9816 88.6928 16.2043V13.9262C88.2057 14.3943 86.8663 14.7376 85.2832 15.0809C82.5434 15.6426 81.3866 16.4227 81.3866 18.0766C81.3866 19.5745 82.1781 20.3858 84.0351 20.3858Z" fill="black"/>
<path d="M101.243 6.12482C101.791 6.12482 102.217 6.15603 102.674 6.21844V9.15177C102.308 9.08936 102.034 9.05816 101.669 9.05816C98.9595 9.05816 97.0112 11.1489 97.0112 14.1759V22.4142H94.0278V6.49929H97.0112V9.52624H97.0721C97.894 7.52908 99.1422 6.12482 101.243 6.12482Z" fill="black"/>
<path d="M105.462 28C104.793 28 104.336 27.9376 103.544 27.7816V25.2851C104.062 25.3475 104.336 25.3787 104.823 25.3787C106.01 25.3787 107.411 24.7546 108.019 22.2582L101.748 6.49929H105.006L109.542 18.6695H109.602L113.864 6.49929H117L110.851 22.7887C109.359 26.7206 107.867 28 105.462 28Z" fill="black"/>
</svg>
